<mxfile host="Electron" agent="Mozilla/5.0 (X11; Linux x86_64) AppleWebKit/537.36 (KHTML, like Gecko) draw.io/28.1.2 Chrome/138.0.7204.243 Electron/37.4.0 Safari/537.36" version="28.1.2">
  <diagram name="Page-1" id="c0EAfwvGmlkHADn-ZHt5">
    <mxGraphModel dx="705" dy="369" grid="1" gridSize="10" guides="1" tooltips="1" connect="1" arrows="1" fold="1" page="1" pageScale="1" pageWidth="827" pageHeight="1169" math="0" shadow="0">
      <root>
        <mxCell id="0" />
        <mxCell id="1" parent="0" />
        <mxCell id="hI0YtmNNRfd8naDbK4rW-12" value="" style="rounded=1;whiteSpace=wrap;html=1;" vertex="1" parent="1">
          <mxGeometry x="113.37" y="91" width="306.63" height="309" as="geometry" />
        </mxCell>
        <mxCell id="hI0YtmNNRfd8naDbK4rW-1" value="" style="shape=image;verticalLabelPosition=bottom;labelBackgroundColor=default;verticalAlign=top;aspect=fixed;imageAspect=0;image=data:image/png,iVBORw0KGgoAAAANSUhEUgAAAUwAAACYCAIAAAAA1EeFAAAQAElEQVR4AeydCXxURfL4J/dFOJIQQpBTlktBWS5XxBNcLkX/3gsicgm/HyLrSrxARd1VwHU5VBTkBn8esIqAuCsigngQUO5DAbkJSUiAQC5C8v9OOul03ryZTA5m3oTm03TqVVdVV1d39VH9Zsa/QP/TFtAWqNYW8Lfpf9oC2gLV2gLayat19+rGaQvYbNrJ9SjQFqjmFvCkk1dzU+rmaQtY0wLaya3ZL1orbYEqs4B28iozpRakLWBNC2gnt2a/aK20BarMAtXVyavMQFqQtoCvW0A7ua/3oNZfW6AMC2gnL8NAulhbwNctoJ3c13tQ668tUIYFtJOXYSA3ijWJtoClLaCd3NLdo5XTFqi8BbSTV96GWoK2gKUtoJ3c0t2jldMWqLwFtJNX3oaelKDr0hYotwW0k5fbZJpBW8C3LKCd3Lf6S2urLVBuC2gnL7fJfI7hZHre6sTzKzec2/V7js8prxWuvAW0k1fehtaV8PuJCyPfTGk5OmnYrNOj5p+5/oWUjk8cw9vd01hTVRMLaCevJh1paAaLdv9Xk9snnNxw4ELzqIDoMP/oMBuAzeaPt7cceWzZunMGFv1YXS2gnby69ezmPdm4N4v29qQ8vDo4wK+4hUV9jcNHBvuPWXQGV1+w6mxxqf5bbS1Q1PHVtn2XU8M4ePd+LumOSal7Uy42j/JT3NvECsLVX/w0I37w0elL0jOy8k2INKpaWEA7eXXoRo7ZHLYHzkhPPl8QHxlQ2CS3ehZXh/6trzMbDj8+aXEaIbpCXs9nusZLaAG3hsIlrF+LrpwF2G+3G3WcY7bN5h8f6WezVWRBZvfOyj/7u6z2f0t64f1T2tUr1yeW49ZObrkucVMh3JudNvtttuUsyIVc9CapECx35o+rM018tiWHaPzTM1KJzJdbhmawpAUqPCYs2ZrLQCkOzxyhhXuz0y5276pquT9TBuG6VTtzuz5/csikZKL0VSVay/GWBbSTe8vy5a4X9564KK3l/x7nCM2SWy73PpWVfzzjYu7FAjdrxdWZQRIP5xGlJ1ZPxN5NRl8gu+x01E7uA13OIZmjcs2hx+ZsyML32FfbbOXoODx8wt2RyxNi6oXb3Pdz7IKrs6pzFUfEvkfC8Q3bMkHq5HMWKMdY8bm2VQOFORhzPOaQzFG5Q0xgZHC524RX398+ZGCvmh1ahU4dGZ2aWe7IHK7OzHIy03bflDRcnYu6ciuhGbxqAe3kXjW/88o5DHMkbp9wkuMxyymeVkhb7v7KuVjQulFQIa8tunZA5gUBljtHAVw9PcePizri+fqFuXJb0HsM5R403lP1cqmZAzDHYA7DHIkV965g80MC/HYfLvLsoyfzwov8vYLSYCMcgMOPWXSm6fBjC/QLc1jEVbJEmXZyS3SDVILV+7a/p3IMrrx7C5k45K9JeQI+mpwXEugn4Erk9jFD2C86zMYFHq7OpqMS0jTrJbeAvcMueSW6AvcswAL+3e/2z5Pgme5xuEV15HRRUP1w8oVg8TqcW3xlEvkXurr/VeOSCQ2WSa0JvGUB7eTesryxXnbpK/fmFkbOjUWVeLaH2YiuCwlZOUXeXrEX44QQx7xtnYA3PzztiNcYi1hAO7lFOsL29ebMejUqv5cu1Zzci354ONF1gb2tQ/jJcwXE28ELTJXkwQF+CxOzq0SUFlIJCzhl1U7u1DQeLli7M5cgWeUrxYdx7OMZF1muuzYLevL28BF31RJiuUWb8mDkXdeGXBntDwEJYlFUyZygPbd9lRSi2S+RBbSTXyLDlk9sRlb+lqS84AC5nTayZ+TmFzqkffttLCt+hgC/rRdumzKg1i//jNs0tcGMJ+s+fm+dpvVLQuqD+tR6eWj0pxPi9r4d/8mYKGaBfWkXEV4sw/wvkqEhZ+IoTEayOmF+237T3y1lNItFnrWTW6Ijfj2UW6iHeXfgYIO7huGQxzOczgL4aqdGgavH1/1qUny/G2vUqxNYKNBpFhnm37VdOLPA3mlxQ24Ig73Qh03oqZ2J49m+NVj/ne3zI4P9vt+pd+wm1rMCynxUWUGzy0qH7ftzIkPMD+Tsvd8eXPvpAVEznqw7Y1Bt1mrFMizs+TghmK+fj5mdENumaQhwuRLTQUL/qCMz49vGBZYWbheTkZt/Q9MgJg62AKz/Ofa3303GTHCA39d79Eput5gF/5t0WGW11Pzlt8D6nTnODuQ5eQXxMUXLMkv06/fVZNUtroGjdcFd7UI2Ta3PebsYWeqv4ahseJSkLOyLx8XOGlJbEW7Dw9vEBjB3lJA5f6+WXYa+SJOGshSgndwS3bFqTy6LoakqMeH+T81Kz84u2gwP7FVz2l/sfo4HsvDi8xNHxjgyrk48P/LNlPjBR5sNPMaBXxKMm53ud/+Ru19MWrDqrIoXBH261vhlUj32DkJ4xwZBrN6iiHz6kvQM+6mC7QNPJmn7Pr2Ym5jF6yjt5F7vApuz1VVohvMfPZvfevSpZcXfr4qfszkfckMYu3dgQSbzeSvtL5wOm3V6w4EL8ZEBteICWaVl6ZVxAW1jA46cLnjx04yW/3v86RmpBlcnSvfjxHoPdAhlVWdtF4y7fs9hXnjzv5mF1/jmY4bjxs+/5gh6nVvKAuYdZikVq70yxKVdv22Kn0eH+Y+cdxpPE1tiNuccpNm9q8bBFVuOPDZh2TmISXARCTe8rF4jzK/wXG2DgClg1c7cmkONr6BzSicCz6ouhE9clHbVuOT9p/JhERjTnOMGt4CmRRrpXQv4uJN713hVVDtxaaLTZQrDJ1mB40adMKy9gpEFHFdkpS3tiv4ssIJA5LG1S73XykTQIcafVb3/q8mmYsHP2ZDVISYQSiHBWQ7B90fyTIU4Y9F4z1hAO7ln7Oyqlq/3XMBDXFEoZS1q+s/4t/EdUpb3MR9mUKQQFoGN7N/uWATzp05kQO5F/qrJnynmg2056342fifE5j3Z3xwox5u27BqK7wJV+Rr2sgW0k3u5A06m56kB7TK1ycgpuK1DuIGMDfbphVcQZicUxxZdlnL1XSOsjC4mxsY1eNJ79eX+XLJzKDBsBGSRKcChg7tA0yKN9KIFyhgBXtTsMqmaiHSdMPMbckcL4LS3NAvG9xyLwBBmXzCyDldZkPEoUlytUvvziNJ1Mb8QwOManGlC0BvyNwfUIthuQDp7ZEfAXaCzUo33lgW0k7tt+UtDSEQ6uJQbuqomNTP/+f5FL6JDxwGYBCBT904Re9+OvzLaX3pmzdJezXadi3fomQhYw4nSE8DjUU2/nyj6kgmQLO+4LoA7KTjAb82+El53WDSNByygndwDRnZVBRFpomWuKJSya+MC1Xfalq6xX4Ox4VdIbJFh/lxuv9ivBqv04TP5V9QtNYVE1Qo4kXKRoq7NgvbOaOC4KRgyKfm+11NVgU/1qSGnDBVvCqdnFahzhCmNRnrYAtrJPWzwUtWxDm8p/tqWUgVmDyy8D3YrdRp/bmkGIff2f0ty9KtBfWr9Mqne4hG1H7+3jiqMa/Cd0+JWjrW/JKvigbOzs3s/l/Td7xc42G9Qvpj17ptr4LoQuJM4enAj6A6lpvGYBbSTe8zUJhWVKxZ98lzBn68rcfKVG84R6EJofKRf+4STRMKB1YQ/s9lWMQJmL9C1XYkcgWS66fxU2tGz+WwrYsL953xZ8sPGbA1uaRaYa39rXdC6ytnbb9avxLiykBfKtJN7weiySmLRwlElpggw+9Ooln895bNlK37KwqMKCf2bR/nd9vdU+UpcIbIcGRuBdk+cgIFDtcjnbM3B7YFFurVtiHiFRjy6yJHwxXb7u68uaHSRhy2gndzDBi9VHbHoYkcthXd8YCHtdVWpT4d8aX/dXX7yFD8PeGTW6XkrzzjyusawBej6/MnoMPsPJEnKJhH+234relse5B9bhDjcroM2T+z2DWECczqN9ZQFtJN7ytJm9SzdnuviiyJUDhZSNYSGFxWek0t1H+v5mA8zpi9JVxmBWZNxfpJ60gZPYg3v+EIKG35gNQUH2Aj7S0zzhsGF1UmEK4C9CfeCrih0mWctUGqUeLbqy702HKzQBG51AQtpo9iSL3hx8g3q/sS9thwwXmI98EryhGXnXltxrs/ktF2/l/oMyf6jubYgW+5F40V9SIDf0ZSSN+PCQ/3P5LNrcPr5s8KGFGWGCaIIq/94zwJujTDvqVeda972Ww4+6X4LA5W7sHT7V7gJVvvXQnHFtTk1z2bLH3lT2JTHS33ydNLitN2pF9mNE1FrHhXQ/ZUUwSZy7tU/e6xOp0aBXKqxzSaAL/DkqRklLk3srZY/E4Fbo4UJgntBJOhkEQu41W0W0bWaqeHm51Jkq0OCcTP5ZAdwy+MZBdx4TxlQK+mt+pumNkjoH4VD2suK/7dsWHKS52DPTXtxSdHffjfWmJ0Qe3rhFZ+MiRrcNYyZAofPyC3ILh0+Cy/ZRhQxOvsTHOD3/RFmHGflGu9pC2gn97TFZX0//86B3Oi3stQRyMllw1yErhMZMPT6sOUJMQfeiZnxZF0cVQ28FxEV/mn3h5CDJ/Jwb55SM/NvalPi82DUxL3a0wOimCm4YJ9wd2S7JkVfRyNoMo2HAIE2z5kRDOcCczqN9YgFtJN7xMwOlRA5SzzBfpjkUOYEcUB527RDq9CXh0aTh4aGOiEvQnNbvnNaHKs9zzMG2b8rDsB1gmVgr5o4vCRD2zOnOaILbUUuC02AyBC/jbuyTQo0yhsW0E7uDavbbMSfCw/kTu2fkZvPSbtwQ25/C7Vnq2DDu2vu692maQir/aap9Vnw3edSKdkmfPf3uhwNCvUpIEe3XOevx4QE+HE7qEoogvUfb1jA6SDzhjKXUZ1cUAUrgTSl5fZ1EhcackMYJ+0FI+uwJz8yMx4vVWjMQdZbLr2XrTvHbZk5RWns6sTz3LeRF8f5SxeXfmIzf3zOFb/8Mw59OL2j25XR/sxEpamKnrgX1J9UKbKFBf5oJ/dOJxB/Zrkzq9ufdXLNhFhCaCy8RL/ZkxtiaYKL22/h0hMXpfV/Nbnp8GNxo07cMSl1zKIz3JYvWHVWkDnLYe8xOe2trzOHzTrdPuFk7YePdnzi2NMzUpkguE535vYs6eiDw6PbpxPiOjYIcrKe++fk6U+qOLO9p/HayT1tcerDwbbYfy/FadSNUzFkMrHY4sks0Qbf6zj2JC49Z0PW9qQ8Lsk6xATGRwYAEPeKjzHfJ0iZTBxNavtHBtug52qNZLP5r9qZy3X6DRNPrdhQ8u46LCs3nMP/mTjYLPAoE8G5HCeb9pBA/Zsq0k5eBrSTe6EDUu1BLKf1ErXicht3IkA9cVFa/OCjA2ek48kj551+dWHJ22x46fh+NdjzcwEeHOCnikMCWwAVA4xAcjU9eXv4qSwVYUMO0uqH+A3qU0sWsF/oOzUd///75xktRyfd/WISPo80Fny0inQSrY8M9ttzuPQtnJToGUDXUmwB7eTFlvDg36xs+8HbWYW4xArdYAAAEABJREFU2ezvsnCn7q+k4EUsziSQ5Eu35+JdknFs/zonz5Xcqwk85+Rn+9YQsMztm/nHTuCWEgOAJ7OpBlAT4YBne0cwg0jkO5+fbRsbIPyfBX//qfxR88+g3oC30tHKZjMfQs5WeClWAx6zgHkPeaz6y7OihnFBrq+dcR7cCa8GUEyUX6+G39tLSz6CgivOH2b44STbr2fz77k1UuGycczmsUP9wJEzS30DJOz9rg5RD9XA0WE2NYzPAYGZBQ9HgkjAYodPLjCmee5FW6tGTlZ5UwaNvGQW0E5+yUzrXDDeNfqmMJZc5ySmJRyh/ad9m6Uu5gTAcFQpCi8d0SEU+ZKf8z9xOFwXTEZuAedqAJmG9o5MzSzZVhw+k7/ypXqyFIADQqNaFRkk7BFu7WT81DoCdfK8BSrSf57XsvrV+PLQ6MgKrXO43JNvp6kG4XaNKHdGrt1X8Vj8Vi2dvDid9V9sqnH1Zz4p9etIhMrZLxTS5+9Lu/j18zHEzwsf7Rnbe8Mybse68R9R3LSpc40bTL5MYm3dtZN7rX9YM3EGm83unO4rwW75mwO5hgV58bjYG5oGcfcWH+mH30ppbLZZ+ZU9vz8xuXeWltq0j+4ZwTl8X1oBHq7ysgXg1M2pQUpzE0CNKQ9GqqLcZNRkl8gC2skvkWHLFsuaiV8dzyByVj4/Z+0d/cFZgt5qHbMTYgmYjb+nJCpOqeNmG4d/7T+Z6ob/7ptrsMLvnRZncMsHXkmOdPhIDDJdJzYUD3cKJaTnmkyXetIC2sk9aW1jXfjVP+6JLPRzY5HrZxbYOyalslCrZATMOKJLDLOA6Y+lsuF/aW6pq7hNUxsw40hGgJFvpuxPvxgcwATEk7uJiECjSL+JZr+y6q4ITXcJLKCd/BIYtTwiWfTUyJn7rKznXZ8/yV26M5ZH30ojhs/SSsL9RALOyC1495tMpgBnjHj4l3tyWfPFSd4ZmQM+PzUz/98T4hzwGlGlFii/MO3k5bdZVXMQOWMBxAnLK5gT+PUvpKws/XaaFLLxjajvX677/J2RQ24I63VVcNdmQXddGzLqtvBZw2onLTD5xnUYOYff/WLSmt9yXV+PQemYONXrYJujWayA0U5uhV6wLXo2lmWwUBXO56RCsOzM/v2Nw2affnpGKv5pIA8NDW3TNGRgr5oJ/aPYQjOVENJnS9+9U4Rhcy4YVyeeb/fEif2n7N/KLDDu5wTbpv2lJqcP91k0pccsoJ3cY6Z2VRFexzJYGGx3RWZaxr59YWL2mkTjb5KaErtA9picxgJe3nM4AjNy8wm2MZsA62RBC2gnt0qnsAyyGFYgCEcDQgL9yEViSTcE5ATeNJeU2dnZNre/4EkVxSmDswY7BRWpYUtZoOJObqlmVA9lWAxZEjNyy90a+XoZd2NcfTV7Kqn3c0mTFqdxXCcyBxLPFwmv3rAtk2t2omvxg4+2Tzi5bJ39A2fs7cffEs6abHPyLroznTJyC3SwzZlxLILXTm6RjihSgyWRhZHlsejZjT+ch2cMqi1eL+NujKuvDjGByecLZn+XNWr+me6vpLQcndRw+HGRCMjfNyXtxU8zNhy4QNyueZTfXe+lMwtQz9j+dTJyyndntjk1b+WzMaJqJOhkTQtoJ7dcv7AwFgfhytaN6aBLw0BxPc5avWxHTuHVl50RgDM2J3Yu1WXikQQ+2P7pVHrfv0VN/1Xfn4cBX10wsg5TBnBZyR4ahPKzx+oQ2yuLWJd72QJ0s5c10NUbLICzrR5f180gHNPBu2OKvmid2Jt6ODeIdfYYEuD38Yaij5UTeO/VKpiJwxlxMd7+xU9Drw8Tk0sxUv+1qAV8w8ktarxLphbLo+NnSB1rwxtvaRZMZF4UfbwuswIvorKkf38kT+zYkfPQLREcswFcJOq9sk4AF3IuaHSRdSygndw6fVFKExbJwiCcfWNcqkB5wD/3Fv+YERG1lXvL90XuUlI95WPquw8hRJaYA2wfPhofa16msdazgHZy6/VJsUYE4VgwWTaLESZ/KSWQPnFR2q0vJhNFK+9n2oRETu8LN2YPmZRMyP21L87zKPBmuf0TqZwmOFOYlWqcFS2gndyKvSJ1YsF0/T1KwQEFBNIX/5gdHSaZKgIQiks8nFcYcnf1DZBc43OO4DRRkTo0j5csoJ3caHhLPbNgfpoQw01VoVZs3UmFYElm70H27YX328CkkrJyQQghOWfJP5WVr4Ntzu1j3ZKKjwnrtql6acayyU0V91XebVbuRb9r6+tgm3c7oYK1ayevoOE8yUYQjiW0Am/CVaGShNwXPKODbVVoUc+J0k7uOVtXpibuq9rEBrCcVkZIhXm5tF8zIZazQ4UlaEYvWkA7uReNbytX3SykLKflYqkSYk4Ki0fUNvyoS5VI1kI8YwHt5J6xcxXUwkLKcsqiWrF7soppQLDtiVvD+3Q1/lpDxaRpLq9YQDu5V8xewUpZTpeMrrM5NT/XyS+QVVCuEzbW8J6tgp8eEOWkXKN9wwLayX2jn6SW3TtFHHgjrlOjQDyQVf3SJfYLMwbVnvFkXVm1BnzUAtrJfa/jWM9nJ8Qen3PFkZnx7qfyUm6a2oCovu9ZR2vsYAHt5A4m8R0Ep/RLl3zHDFrTMiygnbwMA+libQFft4B2cl/vQa2/tkAZFtBOXoaBdHEFLKBZLGUB7eSW6g6tjLZA1VtAO3nV21RL1BawlAUs7eTZ2dk7duz4YPHilJQUK1jt3LlziYmJ6GMFZbQO2gJuWsCKTr5ixYoRwx+7rnOXpo2a9Ot7R/8BAzIzK/vzIG6aw5Rs+rRpjw4a1Paqq//QrPmD993/wrjxpmQa6RUL6ErLtIAVnXzN6q/XrVt38eLFxk0a142NbdSgYZnNuKQESz5ZsilxU2hoKPpERUfXrFXrklanhWsLVK0FrOjkgUFBIcEhAQFF30MUGFgEVG3L3ZcWERGBhwt9RO4+r6bUFvC6Bazo5Aaj5OVdNGD04+VjAeIgxGUOHTp0+TS5ylvqA05e5W2ujEAOEXoxr4wB3eHFpV/7x2vEQW7qduM1V7fl37dr17rDeKlpfFS+RZ3cz9/PsgbFzy2rW/VQ7Ldff5s2ZerWLVsJuBKUad2yVWBgYPVomldaYVEnL8gv3y/vedJ2eiX3gLUjIsKDg4O1qavE1BZ1crVtXg+8qcroYadaQ8M+YQEfcHKr2VFv163WI9VSnypslA84uaWi63i4XMxTUlII/CYmJpIDV6BXxCt9q79aTVq/fj0BpwoIkSwEopGAMiIBg5GlZQI0QTDSIhJwudhV+YhCAo0iAaCJWuoOHBwS4g6ZmzQGfXh0k9FARkNoDo0i0V/AYOhEA5nVHn3AyU1NtmD+/Lvu7Pfg/Q/I1LtnL0yvEhsIiNaqpQJOGJsgJQAg5MjhI6LINMfDSdQOZbur2vbre8dD9z9ADkwoGLwplyOS8TFi+GNNGzXp07P3iOHDSY8OfOTGrt2aN22GSjiYI4sjBiekyQSi0bxNq9Z/aNYcCSiDTHJgMOCxAzJXrFhhkEAtHyxe/OSYv/bu2evKJk07tu8AF4kWPXjf/QCwUwSNgdHFI7VQHdZAAo0iPXT/A9d16vLHa9ujpzPvogq4aIVIb02fHhERIWsBXrRwkSgyzSWlI4BkmoA+qIEyJAAeRWe56Z8YCgNiSUwKO0JI9BcwGDqRKqZPm4bDOypgBYxPOjl+OP758YcPH96/f/+vhf8SN27s3KVL9x7dVZsWltgzQbZ71261VMApKck7d+6EQKRffv4lv8Dxp4gEbUk+edLklJSUxoUv5MXUrUsEGJhQ8MsvTaC/KSohdYAYWCOGP3Znnzs2btwIV/34+jF164ok4K/+898et3Zn0DiwliDwbYb7Va3ajBg+nHGM8jVr1hTSUAY5IgcD/tixYyuWL1+0YGEJv83GBMHV1KuvvLp27VoUFvTkJJQhJ8FO0Qvjxnfq0LHMEUyn0PYxj4+mOhhhR45IPDIzoifexSygqiHgvLy8Hdu30wqRkAC9KCIHRg1RZMj37tlLB0PjmJhG27e7lgbCiwJCE5HzSGe9/trrTD2QOfKqGNyb7qBTsCSGFRJkDgZpVDHlzX/NnTNXZbQO7JNO/vioUdEx0SL6Sn7hwoUbb77ppQkvGczK4KCUBEAKcbIDDAoKolQkiA1CTB9ZW6A3FIGh75OSkm69+RZcyFAqHsH/ucftGzZsYGQ4qyskNIRSBg3DS3A55u/PmrVz505GGDWaKqOyoBip6w1dVSQwqzcDFzUo5dE0UUQVHFJ6/bknQ9mUBiRr3Q3Xd6XtEMMCxpBAoucVDa8YNngo3m4o5ZH9OTQygVGTxBuAwKBAMCqlgJlKmEYppYGmBCApQiXIXPg5uz/mR7qDThGSTXOkhYSGduzU0bTU68gyndzrGhoVYEu8Y/t2hqYoyM3NjYqKmvHuu+LRkzlDn9rJ1UqFYk89+TcVKeE+vXpnZGQwtiQGCefPnz979iy5KoqV8KP/+5DBKilVICw8jLlJxbiGszIzW7du45qGUhQgoRI5jzLRKMbx+OfHSYwK4Px9evaOrRcLmcQjhEaRACQSITjM3/76N9N9AZWKJOkNgChVcwOBeMRpmUqoiOoEhjwnOwdlSAZ9mHfYdTP5QmNITEbr1n7LXCDxVE03IUQkYDCiNCc7u0mTJgK2Wu5jTs7geHrs0ywXwo6YmN3vkn8vDQ0NFRjP5KkpKXTzlVde2blz57p16/Ko1osPL/tsGYubigQWh1LVE1KSk1u0aDE2Yey48ePuufde2qIOQdwm4amxIOEtM2EKxhxakdCHBEACSVFBQcEfWvzBtRDIwsPDaRQqAaAbGMkiGoX9JUYCw4YMZWMlPQoueLHMM88+Q7r55pt5BCnp2YA8PTZBPgrg/LnztFQk1QiiFAwNEaWGHLygkfngQY/iuvIRXuzQ48+3Y2T0uebaa9BHlqJ2WHj4G5PfkBgJTJs6LSo6Wj4iJ+9CHt2EECEKmN5HGtbOzMzSTi5tVSlg4ICHZf8xbpJPJq/6z5cYulJCy8nMqJoyfdrPW3758OOP3p353hdfrvq/jz+im1UxcXFxC+YvUDEsd9OmTFWXhUMHD81buAAhAx955C/9+3Pc+OGnH3EwBpNgZPzl5uSsXr1aPLrIMQVGQAiDb9r06XMXzCdNemMyw5GB2KBBgwOHDtarV8+FBCq9uu3V365fhz4kgGUrljOmkSy56kTVcXy9lOjA9m3b5MwFPWnNt2uxDO0ivTnlXzyqoiD+du236nxx/wMP7N33a+LmTSK9/OoruKWsF3jMX8ds37lDlBpyOkJSAhDLQAFMB0yiXfQFzZk0eRL2QZ+58+Z9+MnHan8xf82dPYe5A3qZ6C+8V8pBJnJ+2Pgj3YQQIQqY3v8xcSPj4aG/PFSjhkV/Z8aXVnLiwGlpadLuR48cXfLp0saNG8uO8QzArqFv377ksrpOnTrh54wJieEIx+MISP4AAA4CSURBVFlOHTfvz3o/pm6MJGDg/vNf/+zWrZvEADBK5i2Yr3LVrFVr6ZIlFLlOTHbzFy549rlnGXzde3RHLAklGY4MxM8+X8ZKrirsWpoovfrqq1/5x6vMaOKRHAlbftkCoCYi4epyl3wyecGihYZO4XHhB4vSTp2SjIb5AsmlUkgos5skBhCvtZaiUR4gkInoF04rH8+eOYNlmAElBoD+wi3pAmCRgoICv1v/nYBFnpmZmad8MopJisgudYpSNUc4pmYuU5GWgi3l5OaWCQwM8Pfz54C0dMlS2X8sgwsXL6K3zHkuJZZJ3VE8mrRs1Uot4pC2b98+Sbnss8/kEIGMqer/3XOPLJUANA8PHChdi0Vvzeo1stQFkJ2V7aK0YkVdunRhFy150Xnz5s3yEYDl7qcffwIPTGLZvLX7rcwOwIYEsm27djRc4GnmN998I+AqzDmNn0o9JfXBjEOGDcMJHavALekgiWfHDq98BGDIkcvErP3xRx+xbZEYHwJ8wMnDIyLWr1/HRQ5nOWFZPHzWnPdZssSjRfJuN96oLsJ+fn4HDx4Uuh05fOTE8RNy8DHWe/TowUAXpYac+QICFYkvqY8eg3GPiBol99Xof+zoUbX2rVu2RkSESwzNp13y0QB0ue46CAQSUaY3mqK0wvnuXbtUhQk3uhgknTp3lnYOCgo6dPCgWm/DRg0RJQko4qg15NHB3FyuX7+eRx9KPuDkERERhKxi6hb9KBe7LDa6zMRWs3Lbdm3VMcGdkNygHjx0MCio5HNUDPE9e/aMGP6YaeJ6jCarrWPrqD56EsbP1UZduJCn1r579y7WQIlB7c+XfW7aKJDr162T8xoWYJmVPi8lVBLYsWNnSHDJq3Icdt55+22qdkwc/U6cKJl20efw4cOG2olopKelqUiWGa7lHx34iHhnyVe83QecHCszeshlovMk7GFAHfGGqmvVqqWeJBk3Z86cETQSEI8UsThvdPJv//79EAhK8sDAAG7dALySDJY36HDqVFpgQKnJC+WdNGsjTVbbhSXz8kpNGQbhFXg8fOiQ+iFlDjs7tu8w1Wft2rU5OTlqFUw66iMwEY1uN92ohuhAIpP1hrTqiy8GPTzwj9e25063ymcrKqrC5BtOrnYAuyZuQZ1dILttGk8Qnjt3XlbDwi5hAIY7w8U0UQSBmrKystRH68COWwyUN20USIpUzdUJUcVXBsbZDLXwSNWmyZ2K5s6bx6n+0MFD6ggUjEx/dWNjkf/6a6+3bN7Cyqu6Dzg59iVuzC5dGJe8cZPG+Lk7ZmW5gN4zKSe71MpApTWUAy2PaiJGxRLhIhGrF6XcfoWFham8VobpLKG2i5ymkc6fr/pv4OU4YOhxho0LTWQRlwKGhV0ambH3Y+JP3EQKUTRQFgHg5Kw6sfVi77/nPsuG5XzAyc+eOdut243vzZrJhIpZReK2fMBD/dW7VoE35PSBxDguO7KoXIAqU2U8fvyYulwz2qKLX6Uw7OTx8O49eny2/HMu3pwl7nJFEbvN5s2bqxVZB27Y8Iq8iyVbbhxgbMJYobaLnKaRPl+5nCvDqm1LfHy8KhC3nPTGZBeayCLuYqe//ZbKq8JcAXITyYX83AXz8fYTx08wO9CJkoYhwYAkLHfu3DmJtA7gA06OsfIL8rn4nTh5IisAjyTMyvR5d7+7XJg1KioKT4OYBD1hMBfE0LiTkCNlGui5Q2YlkUi2ow0bNRKPjRo1MoSsUlKSuVUikO5OUsUKgRbJmzZr5mgNd1okaKq8FU2bNb1w4YIUSxeEhoSKutzJJaMpQC8wCPH2Q0cP4+2dO3fG1SUlA4No/OfLlkmMdQDfcHJhLwIhPW6/neVCPGLWgvyCoYOHiEfHvH79+oYhKO+0HIkriWH6+PLLLzn7STkFBQWtWrUqfLSxFKgzDmTrSr/yJch8Lr+m3TXpaelSbdzgnbff4WAsMVUC0NGnTpW8SONC5nV/+lPm+ZI4CAFaripc0Fe4CG9/d+Z7L5d+Mw89t2zZWmGZl47RB5yc8LJs/5RpUxlJ0nVDQkO2bdvGBZskUIFWrVur8zr37Us+KfvtMVWC+/DLE16mjyU9ezmuYbl/kph+d9+ljv6o6OgH7ru/zOOGZLcmwGVyi5YtZHdgAQITgwY+wpRXGYVr1S718xX0+KovVjkTqFq1bdu29LLUh8mU4cFtmTNe13jC5ikuf5/rL/37qy8LqRcNriV7uNQHnDxPebuQ/p47f97RIyWvZBD2mDZlqmkQrmOnjlnK7ysRDl20YAE9J4cFQFZmFkOzvEaHUbLgqFzDrli+HPkSeeb06aHDhslHgCFDhqSmpAKIRKWMxRu7dnvpxZd27NihCmRg0RxmrjatWhtewxK8lsrHv/ACUSupEtMuN8mdO3aaPs3+JQqyXQBHDh8hNEV768fGuZ4FmjRpop5usBVbMAyicmElpGF5gtuydobH8MeGy70eeIbHV199dV3nLh8sXowCYERCHzqOOxqmgE4dTD4iivxHBg3q2L6D/dOmK1bwKBhljgTGElt0iQEIDy95NYhHiyR/i+jhvhocZZ8b9xwxFclCzOOxYcPVESCKunTpoo4VkFxvMiauatWaXueGk5sPRiRjiCL3E/RXt26DhJu63cj4wFGJjTGYpASW8ZatWnUv/Q0WLHqjxzxhOMXVj6+/dMmSfn3vQBNEkXBs+8Aa+AiDkiPlyZMnpVhrAjTzT9f/iQVcqsf6iTVmvjcTy2AoGkUCuOH6rqMff5z2QoDTSnpHgB0QlmESlEUIxCBXtWqDKFKbVq2x0ojhwzds2LBnd6nvAnl89GhmW5VXPL76yqsoACMdhwTGAOolPDX2mzXfMEk5Dh4s36xxE9TYumUrZFTHgJFfX9O7Zy9axFhCMalkRsZZ1hX5aB3A95wc29GRjAPZkXhdSHDI46NGUaQmaEb8z0h1OqCUXuF6E16GGl1IDrJcieqYLJBAuB7YIAQ80df3Zs50lMllTMdOnQz6MATRByGIggX1gJEPPiw8fPu27SDLk7xA+/6c2dTK1EYuE/qLhggMLeKR1oEPCgpMOpEk8M7y/gP6qwsyZDAiASuRkAOMTJCJGzdSqqYl/16K39IREilZYATPo7A5j2w9IHOcdLZt3RpS+PllRghkVAdw7Nix/YX/WNipHTy8IiE2MrKmBV/ERD2fdHL0fuPNf9KRACLRVWtWr2H/Jh5ljl+x9zMMF0rpZvLKJCSQDBJY0NLT0r5as5p121AkHj/8+KOePXsyCzAmBEbNDQKDgoK2btmiElgT5ibsv19/FRcXp+5TpKo0iiQfAbho3L17F4CL9OjgwXCZWsnAxWkOl1ORjRs3XrfB/nq5YT4VNIgVgMyDzCYd0xAavDJJdgAmOEbjwg8WAVswWdHJ8y5cYOeDZ4p0+NiRjIwMg+24EenVuxejStCQczpiN8hJyUD5788+7dipI3fseKDjoAFDD8HOgOB+jrr8/Yw2SUtLowshEBJgMVQBBglUce0fr/1h408cKAwE6uObU/41e+4cxgquDhe1w64S8AiSorNnzvzw/Q9qkYQJJVAKjUiozS2jLHUTOH+eULQQcB5pplxFxcV/qMiUjE3TF1+ueuGlF2mU6BRaQVKJeaRdmDE9LX3njp1qkSPMxLHii5VUCz1c8BpowICnFJXYWhtK8fP1G757eOBAOgUa0XEGGiSAp3T/wd8dJ5077ryjXbt2gp2KIHZkBw87NC1atNj0y2bX/W5g9+SjcUB7sm5ndd3a/bYn/jpm+GPDRfrH3/9h+oUHz48bN2TYMEFDPvJ/RpK2bzfubwnGzJ037/OVy3v8+XbiIvQKA5GESwPjbPTQPffeO278uGUrlnPv5bgIr1337ZJPlz7z7DO33HpLgwYNYIERCSIBM8QJtLKAUxGws3ZJPOfYHzf+hEy4uEJnAKGMkAYAGSpRxGXs3n2/8uiY7ux3p8FENM2RzAUmMDCQGAF2Ewlpph8gu/e+e7GqoCGnL1zI5I6TO+R3Z87EntiBCVc0ihzPx27XXHsN0uiLd2e+50KOKMJRf97yC/2CNeBFAnJImAjnR/7NN99MKTttU++i39nH/XZg36Q3JtNx0NNTsIsEjMW6XNeFbmXMPD56tKhU5lySse3atnM7VXAlDjEsVC3YUQaVRHN+TPwJSuRLXqsBVnTyvn37YnSZ6CpTC+KNFEkyAbDCm5oY/KTJk75dv45xs3PPLtLWHduBcTZ66KUJL+FUpmMFaQwX2BnBLMKffb4MFhiRIBIwixiaOGNHgmlCJlwI/P7HH1BGSANI3LwJlShinFG1KS/aivaKHGJTE5nyCiSS4RLsIkemKFJzUSRzWJRSc5ApDHtiExoiGkW+Y/cu7MYkiCgabs7pgEVJtMIa8CIBOSRhIuTTHZQyFzjwlSDYETCcoISenoJdJGAGA3MN3eqi47AqVUAGMSxULdhRBpVEc1wrUKKK9yArOvkltQbjho4XCbhidcEoJJADV0yI5EICcmSSeF8H1HYBV7I5SJAmAq6ANLgqI6GS7BVQuKpYLjsnryrDaTnaAr5iAe3kvtJTWk9tgQpaQDt5BQ2n2TxrAV1bxS2gnbzittOc2gI+YQHt5D7RTVpJbYGKW0A7ecVtpzm1BXzCAtrJfaKbtJKetEB1q0s7eXXrUd0ebQGDBbSTGwyiH7UFqpsFtJNXtx7V7dEWMFhAO7nBIPpRW8CTFvBEXdrJPWFlXYe2gBctoJ3ci8bXVWsLeMIC2sk9YWVdh7aAFy2gndyLxtdVawt4wgL/HwAA//9LlV3+AAAABklEQVQDAAgE78QxMALXAAAAAElFTkSuQmCC;" vertex="1" parent="1">
          <mxGeometry x="220" y="100" width="91.74" height="42" as="geometry" />
        </mxCell>
        <mxCell id="hI0YtmNNRfd8naDbK4rW-4" value="Apache/Nginx&#xa;Reverse Proxy&#xa;avec Syslog (client)" style="shape=image;verticalLabelPosition=bottom;labelBackgroundColor=default;verticalAlign=top;aspect=fixed;imageAspect=0;image=data:image/png,iVBORw0KGgoAAAANSUhEUgAAAVAAAAEfCAYAAAAX5p5gAAAQAElEQVR4Aex9e7AkV3nfd3p25+5GiLt6gBAI3auIgDGPveKRQOJiVyaxMY69K9tVgb2idNf5I4mjRZckhUNSLq1MqkhwXKx05SRVsdmVYUWlKol2ocrgKrBWEEIwDtrlYR6RzF4hkAVI2ssKtHd2p0++35npud3T3dPn9Gt6Zr6pPtPdp8/5znd+55xff+fR3R7JTxAQBAQBQSAXAkKguWCTSIKAICAIEAmBSi0QBAQBQSAnAoUINGeaEk0QEAQEgalAQAh0KopRMiEICALjQEAIdByoS5qCgCAwFQiMj0CnAj7JhCAgCMwyAkKgs1z6kndBQBAohIAQaCH4JLIgIAjMMgITSqCzXGSSd0FAEGgKAkKgTSkJ0UMQEAQmDgEh0IkrMlFYEBAEmoLALBJoU7AXPQQBQWDCERACnfACFPUFAUFgfAgIgY4Pe0lZEBAEJhwBIVDHApTggoAgIAgECAiBBkjIXhAQBAQBRwSEQB0Bk+CCgCAgCAQICIEGSNSxlzQEAUFgqhAQAp2q4pTMCAKCQJ0ICIHWibakJQgIAlOFgBDoxBSnKCoICAJNQ0AItGklIvoIAoLAxCAgBDoxRSWKCgKCQNMQEAJtWolUo49IFQQEgQoQEAKtAFQRWQyB7avHl+YOHT81DldMc4k9awgIgc5aiU9AfluX/F2aaM843ATAIyo2CAEh0AYVRlNVEb0EAUEgGQEh0GRcxFcQEAQEgUwEhEAzIZIATUBAXX39eulu/oVPNiFvosPkIiAEOrllNxmal6Sl95JXLpTt1NUL15SknoiZUQSEQGe04CXbgoAgUBwBIdDiGIoEQUAQmFEEhEBntOAnI9vJWurnfkz+o18yLhzC1T8cV44FgTwICIHmQU3ijBeB7iXSzz5tXEQRV/9IZDkRBNwREAJ1x0xiCAKCgCBgEBACNTDI3xQiIFkSBCpHQAi0coglAUFAEJhWBIRAp7VkJV+CgCBQOQJCoJVDLAlMIgKisyBgg4AQqA1KEkYQEAQEgQQEhEATQBEvQUAQEARsEBACtUFJwggCLghI2JlBQAh0ZopaMioICAJlIyAEWjaiIk8QEARmBgEh0Jkp6unJqGrvJHXNy4wL58rVPxy3OceiySQhIAQ6SaUluvYQYAL1XnQjwfU8+v+u/v1oshME8iIgBJoXOYknCAgCM4+AEOjMVwEBYIoQkKzUjIAQaM2AV5Hc9tXjS3OHjp+aFuer1pFhnLrf/NxjZTv/8a8/NpyOnAsCLggIgbqg1dCwrUv+Lk20Z1ockd4dg3rzp9dTFS6WkHgIAvYICIHaYyUhBYGpRkAy546AEKg7ZhJDEBAEBAGDgBCogWH6/tTV16+X7uZf+OQwUqWnAb3HmM5w/uRcEBiFgBDoKHQm+FrZ31CHPJXwHXX4l+3Gmc6kFXn79vv3sztGq0d3jVX3GU1cCHRGC16yPQUIgDSVPkZK39buts/uuP0je6cgVxOVBW+itBVlBQFBYIBA+9IclnvN9z3mfeU9uP3dx4+INdpHpIadEGgNII87CdfvpaeFz8pHWjxX/6akk6XHOK8ba5Mtz2EdlKY72Bo9jbXBw9eaez65mgmBTm7Z2WvevUT62aeNi0Ry9Y9ETjhxlZcWPkF0xCstnqt/ROgEnXDXna3NYyM0XlBdenj7oeMrI8LIpRIQEAItAUQRIQjUicB2v32Y01tgN3JTREdNl35kKLlYBAEh0CLoSVxBoGYE0DVHNz2crDe3k7zrXxv2GhwjrJmlH/hM3cFYMyQEOlb4JXFBwA0Br0uYOKLI77pXk7riWmq9+q0EMo1cwwmPlQqJAojynRBo+ZiKREGgEgQwcaSJ9oSFq+ddSXDGr7WN1M+8hdRV15nTyJ+QaASOsk6EQMtCUuQIAhUj4FMrNinkvfTVsVS9616VSqJzhz66Goswwx5Fsy4EWhRBiS8I1IDAjtWPLWLBfDgpY2m2d4a9BsdpJKpJfYi78/sHAeWgEAJCoIXgk8iCQD0I6G43RnrqqpeOTDyNRJmIjxlCHhlbLtogIARqg5KEEQTGjIAmL9J9x2SR2vn8TK0MifI46VDAed31R60jHQoup4kIsKfHTjZBQBBoMAI9azH6kmm96yXWGns3vjE2O695MkrGQ60hTA0oBJoKjVwQBJqBQLfrx14S4l35YjflFpZi4TWpw7Qqb3GKAePgIQTqANakBlXtnaSueZlx4Ty4+ofjJh27yksLnyQ77JcWz9U/LLPJx0qrCIGi+05cpi46K+7uow4MxZnvP9U05C2ntgjkJ1DbFCTc+BFo7yTvRTcaF1HG1T8SOeHEVV5a+ATREa+0eK7+EaENPlE6QqD6eVflUtbUgbmdkbhK0x29IYKIt5xYIiAEagmUBBMExojAQjhtddmV4VO34+vi60Z9349MULkJnO3QQqCzXf6S+4YjgKePhlVUl+V/+TyeWoKLyNQki+sp329MBJpP2UmLhRc/zB06fqpq56tW7Pno7jc/91jZzn/8648Nl0HZaUDeONOpuqwC+cM4pp371IqzJQ9VpIW38VdXxh71nJfF9TbIxcMIgcYxKc2ndcnfpYn2VO2IoktcTAY2f3o9VeGM8NBfFWlAZigJcwi/KpwRvvVXdVkF8rdSzDjydGT63EwgZUTJuowXjySEiS3UTwgjXkMICIEOASKngkCTEdDbo5NAeXVVwy8cGZqoyit31uJNIoHOWhlJfgWB0hFImIhakNl4d5iFQN0xKxRDXX39eulu/oVPDitVehrQW9LJV3YJuA2XV+q5rxZTrxW4oJ7/glhs/1J0uCAWQDxiCAiBxiCp1sN7ySsXynbq6oVrhrUuOw3Ik3TylV0SbsPllXaulI4SaJElTOFEWttij3dyWqv4BAgmutqH7j/dPnRcZ7v7T8/xRCnitd99/LBZNTBDTzfNHIGG65AcCwJNR0ArOkXh30+eDp8VOh4eT9U84YmF9dgnTkwmpqZ3IzzikaY7feU92O62n2mDgJlQsRIlMdqUeAqBTklBSjYEAWcEyrJmExPWu0Go+DooyHRavxAqBJpY+PV46ud+TP6jXzIunKKrfzhu0rGrvLTwSbLDfmnxXP3DMpOOXeWlhU+SHfZLi+fqH5Y5m8d6tyI6Osdd/WmbqBICdanRZYftXiL97NPGRUS7+kciJ5y4yksLnyA64pUWz9U/IjThxFVeWvgE0RGvtHiu/hGhbida01kK/VBfQqelH+IpJeOuus68fMa7/rWU5vByEiyHMu552Y+Xoqvvd30eM52ez4oIgZZeBUWgIFAeAi3tRwjUSO48Z3Zl/AVkCZJsveLvEU8W9tzVC+TtuobUzstTHa57CAf3kleSiX/jGw3xQm6KfvOa1IemxRoVAk0pZfEWBJqAwIVtl04P66F/cm7YK9e5d+WLB2QJoswlZCiS2tY2xGuIGGTKluxQEHOqecIK1uikTzIJgZrirONP0hAEciBw5CCzpToTjqnLmon3u2GxpR8bMoV1imGAuZ1J8s9dPLIcu0EkBWyqnxBoU0tG9BIEAgQ0RUhGPfsUFf6VOAyQpYviYYCkT5CwFXo4K27TrwuBNr2ERD9BgOgEhX7+5nPxicfQdavDiq3PYR3Uue8Ne21cXFue+A/bCYEOF2szz0WrGUagc+8BEOhGGAJ97onwqdtxjdYnFPPPPUkgfRwPnKLYKxhpAn9CoBNYaKLyDCKgFUh0kHH91ONEeYmwRutTa5/0k48M9O4fbHS8jhBoHwzZCQKCQMUI6G06Rjj+D/7KPdW8pOuekomhn/qu2Yf/FOnDZCbHwr6TeSwW6GSWm5PWEnjyEcBstSJ6KJwTWKFOC+u7l4jqsj69FqHrDh3DOvPx+ubarbGbAftP5CYEOpHFJkrPIgJK+/FZ68e/RgRitAGke9EmVClhNFu6CV138rS/UkoCDREiBDrGglDtnb2nNq55WUQLV/9I5IQTV3lp4RNER7zS4rn6R4QmnLjKSwufIDrilRbP1T8itMDJhXvfdYqjn2Q32DA54599eHCeegCSrcn6xLgngdiHldHqvn4ehq9M7LkQ6DiLjgnUfKv7RTdGtXD1j8aOn7nKC4ePS0v3SYvn6p+eQu+Kq7y08D1p6f9p8Vz901OwvoKPvuHxR46wj11kQzfe/+tHI36xk5qsT0Oe66fjs+6kznS2ba7G9JpwDyHQCS9AUX96EcDLic2Lig8dP0tKP6CJ9iTlFi/z8F6wkHSp51eT9amfO0+USJ60oVt6ZVomjnqg9v6FQHs4yL8gMFYEQJawMvFWd1iaeBM8Xk6sNN3BiqWyI14C4l33KqLWNg6WstVgfWLCyH/sKwmWJ2Hccz8mwVK0m2hvIVCH4sOLD1C5bZ0/899r/9xj3W+6O//xrz82XCx55GTFGWc6qENMkmfZmc9m+Mp7kNjKJE13aqJESzOMCazO1qvfSuqKa8Pe8eOKrU99qUP+976RtNbT6MJ5OTht454mY/0/IdA+EDY7r6v3coXYY+uI9O6Y3M2fXk9VuOGEqkgDMiWdfOU3hBvqEHstsHPa8A7O1ivfQplWZyD14oXgqNR9QJx4ITjGYBOEb/CM+83T8LhmQt4GXkKgAyiyD3yloh/4yo4iIQSBwgjA2kRXvbX7FwmTjsSTWFZCO+W9NxTpae2btZ2wOEcQJwdVZ3SL9k6z5cmZNJsQqIHB7s/TtETyqwuBmUzHm9tJeBkxLE3v5W8mQ5o8xpnZVU9Cq+CyJUwKmbHNH62TPvtl8r/9BdNVT7E4jQZa0d2d1ubeaR3zNJkM/QmBhsBwPTQV/arrCBbCwF3zssHaTjQCcYLHqDoAy9K78Y0UkKX6Ge6e4/xFN5La+XzXKrkVPsX6NNYjj1mO2ne/9XmCw6QQFsPjaSKsN90SHj9SRA+x1XnTxXuWV2lKHtOM5zLuIwQaxyTVpz9utXX9sitp8EkDvDgWjis+ulnibjTdTcFhNA6wLM2NuAhZbtXI3lHKxBGsSViPWa4nxO4fxImxzs215ZmxOsPICIGG0XA8VnN/wzGGBK8LgZlOJ23iqKw32ROto6vutbwbQJyzMNaZVp+EQNOQyeuPu3/euBJPECiKQEr9w3gmLM+c4tc53klF+j3opnfWlhfRVb9w5J1n2X+mNyHQmS5+yfzUIZBkfXot0k8/Hs+qorsowYEo0S2HY7JU7BbZ7d9cu/XIrEwOxcFK9hECTcZFfGcZgUnNe8rEke5ejH8CRKv7OvcsH05yIEp0y+EmFYq69BYCrQtpSUcQqBIBdN1Tli3phJcae9Sd+O8RVQmnrWwhUFukbMPx3d42qIQTBEpDIKnr3heOZUj9w/5OnRHrsg9FwZ0QaEEAJbogEEVgDGcpXXdogqVL2IedJj01b4QP52scx0KgZaOe0o0qOxmRJwgYBEZ03XFdnfsedmG3Pu3Pp4czW/WxEKgbwljOMYihN386OJYDQWAsCIzousP6HH6CiGfYEYS0TAAAEABJREFUxfossaCEQB3AVETRdW+XUt50A6uA5CcIOCPgFmFE1x2CEqzPjc3WRZk8AjglOSHQkoAUMYJArQjgJj1iuCjJ+iRFR2bpOXWq4ScE6gCy1ipqgaZ14WUm3gFVCZoLgRFdd7x2Lsn67Hgd6b7nAjs9khBoOjbxK56OEmg8hPgIAtUjkNJ1DxLGus/hsU+xPgN0yt0LgTrgqTVFCDT12eIRXSuSnyBQBIGMrjusz/i6T1rHE0dFkpW4yQgIgSbjkujb0n6EQBEIFRb7mENFj3mKhyBQAAHUqRFdd0jW3/8WdhGniQ6T/CpBQAjUAdYL2y6djgW/8JOYl3gIApUgkEWez52PP/NO6ozVus9KFJ5+oUKgLmXce9P2RjhK6lpQmUgKwyTHRRHIGPeE+KQ3Lnm6u4pr4qpBQAjUEVdFFLVC015SK+OgJL+SEEDXPaM+YdlSwpj8SXnmvaQySBEjBJoCTJq3ryhCoOriiC8fouKT/ASBAgigDl1MeWCjLxbj8Ph2Uf802G14La8m6zNIcvb23uxluWCONUUIFMtFUIFJfoJAFQhkkCeSTJo4wrIleWM80KnWCYE64ttqeadiUdImkmQcNAaVeDggkDXu6bUopesuy5YcYC4S1CsSeRbj9u/q0YmkGRwHfcEOj95y7XZ639IOs8f5LNaHyvIM8swY9zRvmn/ykZgKnvZXYp7N9ZhozYRA8xVfxApVzz6VLgVjWOlXJ+7Ka67w6JNvv5zWl6+gT739+fQ7r7/M7HEOf5DqxGWqaQpbkCdUTuq642uZMnEEdOpxQqA5cNZEJyj0GzkOOkXd+Hfc2KYv/toVtOfadij3W4fwB6ki3JavHDkhgBtuhuUJeWld94teRxbNA6CanBBoDqBbCeOgeuOHyZIsGkNyxGb5wvL88N7LI0r96V9+n/7y+8/Q40+fj/gjnJBoBBK7E5CnzaQRFsyndd17a5Xt0puCUOPOghBojhLojYOqM5GoaeOgCISGgf0Euw+++bKB9iDNf/Iv/w39wQfupH/92++l37rjX9CnHvzs4DoOfve1+BdnjQDqiA15ap/oyf8XF6voLum6x2Gp2kcINCfCWunIOCgWMacuZ5rwbjysT3TPAdX58+fp7t//PXriB1sW97UvfAG97ea34PLAXXfl5SRW6ACO7AML8oQQjHtiyAjHW06dkZeFbKFR55EQaF60PYq92Xtau/H/cGFrzPPzf/FwhDxpxO+Gy6V6jYBn69KFZ7eORxyljHtueC21f0Q0uZSGQAn+UsNzgnjxyDIW1Ee+kUSjuvGYWc2ZVtOjwRr9wN3/2XTjh7vyTdd97PpZkqdOGfckrVZ6Q0pjz8lMKiAEWqDYtaLIbLzpxl/qUOJvSiaTEvPGnl/4iy/Tf/rwR+jhr3ydz2SzQsCBPP3HvhITyfXv7s69ByJ1MBZIPCpFQAi0ALwtz4t9IkGfeyJdIiYK0q829sp3zvPERV+761/xmv5R8u6m174q+YL4RhGwJc+USSNF9NDFe5blWfcoqjWe9ZLyejv5z4MAuk6oyOG4atSiesuJgrC8Jhx/5nuX6LnNnmX9sy++gt78htclqgX/8GTSH36zFycx8Cx7WpKngWj9NMUnjWh9s9WRcU8D0Hj/hEAL4s+2WWQyCZUdg/2pYifQCv3hBZ/+49cuDrL0vjv+Gf3Wb75rQKQgTpzDPwj0/v/7E0K84Fz2fQQcyNP/3jeSyHNDt2g/yXpPasJPCLRgKfTf9r0eFpPwRcStyxNqhX7g9AWzaD7ICCxNEObHP/JfCXucB9ewTlSszwCN0N6RPDGmHordO+RJo/4EZu9c/seKQE4CHavOzUtc0dRbocS/X3qQB96e6PBR+vYQX0c4sT5DGKHXUQJ5aqKDMmkUwrUBh0KgJRRCx+tgMinyhqZptEJBir/0J+fpbX/yY8JjnCDLwOEc/riOcCXAOh0iQJ4OvQ502xMtT0V39Xs704HLlORCCLSMgsR4lCKQKAW/zLHQCV4X+tknLtItX5gjkGXgcA7/IP+yZwTKIk+t7pMnjRjPBm7jINAGwlBcJWcrFOtC0cCKJy0SmogAbpBlWJ4gz3sPrDQxi6ITkRBoWbUgzQr9UWR+KZqaQwOLRizvTD/zBPl//Wh5AkUSEcgTN0hLLFK77UKelgiOL5gQaInYJ1mh+qnHSac9nYS00diwr9mBOPU3P0t4wsV8kGxMetSc7WqTQ48Ck0WW5ImXzwh5VlskVUufOAKtGpBC8tkK5ZnS2NMh+skRFh4aGxpeoYTtI4eJE+O0QUz/B38VHMo+DwIoQ4ceBciT1k9T4oSRWJ55SmAscYRAS4YdM6WK6KGwWDSSkYvr0fDQAMORyjxm69J//OvUPfOnxuIME2eQjLGUn/txcCp7FwQYX0IZWsbBi0FAnknlQEKelig2I5gQaAXl4LcowQp9ZHRX3qEBks2PGzXGNtFN737jswSCTIvmze2k9/78y+lTv/6StCDin4QAbnqOXXaQJ4ZNkshTkX5PRyaMkpBurN9sEWhNxWCeFFF0Vyy5x78W84p4oDFGPBxOuDGjew5Lc0CaTz6S9CjgQGhAnE//u1+m9+9/g/nWkbwEeQDP6AO+QblYnRCmn/qu6QHgeNjx0M/BzbVbI0vhhsPIefMQEAKtqEw69ywfJop+9gNWR/dbnydMHPg8Ow9rJDbBlEWiIMpnnyZDljx77j/6JTKE+bXPmMYJSxPp0Ijf4pWXGYszIM6dc1svTP6DN8/RC3ZItUiFj/EnlBHGrlMDRS9gvBNljrKJXjFnG572b8bQjzmTv4lCQFpKhcWlW3qFxUeeUOJzM3Ggn2Dr8JE/J/8bn6PuVz/Tc0yu+uyXDSGCGMMO45fGgSiZNNEN1GxhmvHVzecgNtP9o9ddT0dvfRN96/A+Y3GGiTOIDL8//vmt7x8F/rJnBPJYnc+dJ0qbLCJ1Rrdor3zLiLGd0E0I1Lrg3AOiK6+JVsn217lA/vlnjNNPf79HtLA22dmKGA73czdeTf/hV19Djx7+FfrjlZ+jA3/7bw4HiZ3j+0fvW9oR859ZjxxWJ7BCLwM3upQewclOa3Mv6gjCiptMBIRAKy430zXjmdVYMm0LgmJCjcXL8ED3PLA0z/3eb9Bn7vgFWv37ryF85C0jauTy77z+MnrLtdsjfjN3AuLMaXWansRTjydDxuPjnbVleSVdMjoT5SsEWkNxdbZtshUaHQ81ydqSaAqRgixhYWIG/eP/dK+xMtE9DyxNdMdNOjn/HnjrDsIXOXNGn9xoYeJ0GOtEhjOsTjPe2RsfR2hxk46AEGgdJXjk4Dl01zip2Hjo4ouuoqO/ude4977ttZTm0A0HScKhO755zwEzlgkL8/08g/6LP/tiZyuT9Rm5gYCPvolma1IpsDgdidNMCGL8OsXqxNrgTquzKOOdI6vcxF0UAq2ryPCUUov2ElGERM8+/RP6oy88Qlc9bwe9962vSHX/+O8s0t996eVUBVGyTqkbPuHxyZunnEQDi9Nxdh2gae1TltWpSL9nc215L3EdQBxx04OAEGiNZYkJA8y6cpIREv1fj/6I9h/9Iv3v7/KMLV8ctZ0/f57gRoUp+xpIdCpn5gPixEMMjhYnMPbPPUn+t7+Q+pACrE6v5S1tyvpOwDWVTgi05mJNI1HM1IJEP/GNH8Y0SvIAiQYfeku6Xrbfnmvb9MCbN8sWOx55BYlz0F1/8pE0/TdU3+q8cOSdZ9MCif/kIyAEOoYyHEWiBz/6f+iDn/mWlVaXOpvGGq2LSDF88Mm3Xz65Y6IY30Q3PafFCeLEgvgRS5NIrE6rqjs1gYRAx1SUaSQKdT74Z9+m/R/+Am1cxFm2q5NIYYlO1JhoYG2COHN004F+mDjx4AL8Etw6aXULxjrF6kxAZ0q9hEDHWLAgUYyREcWXOGFc9G994NNW46LU/4WJdGCV9q+VuQvGRBu7xClMmjmtTeBlSZwbbHbe1VlbXuzce+AE4ombHQSEQMdc1rBW+kucTg6rgnHRX/0vp+if/48zZGuNQgaIFC4YJ62CTGGJnvrly6gRLx8BYcIV7KIDOzhMDumzX+69W2DUU2Ba3YelSbKuE6jNphMCbUK5Hzl4ji2Y/bBkktT5b19+jGCN/tEX3ecjQKRwVZAp1ol+eO/lVPtjnyBLuDBhFrA0gTle6oLlSF28j4Anh3Dzgn+iY+LknsMNbHGuyNKkRIRmxlMItEFFDUsGb+ZhldbZRTY06N/++FfN2KjNcqdI5P4JiBQOZAoHyxSufzlhZ+eFxz4rm1wCUcKBLOEwlgmyhMs5phnOFaxNMzH06JdSlyMNwoeIEz2Hgb8czCwCQqANK3o8qcLdwiVW6yS72IaxUXTrMcmUl0gDoSBTOJBp4ECogQvC2ezRpf/mb1yWzxoFQQYOJAkHooQDUcKBLOFslMkIE4xtBtbmiImhniQhzh4O8h9DQAg0BkkDPPpd+jRrFBqGidR27SjiZTkQauACUg3vA3JN2kP2v3r1doI1aiaYAlLEHqQYdiDHwIEgAweShIOwEp0hTbyD1WZss5dub3Ko1bkCXXWxOHugyH8UASHQKB6NOhtYo4ruYsU22MU2ECnWjr7h9/+MMEb63fOXYmHK9AjIddT+dc/bpE//g230vtc/j3apC2Te3A5SDDuq9mcescSTQt/7BsHSxNpNvNAYQyGjUsY6Tk10kMekd2FIhfhmNiq8XJttBIRAm17+3IDRkHnSYom4K5mmLp6pxxjpTf/+k2bWHmTqMnOfJreI/+rLffrzX7+S3vemq2nX1kvvi4gcGTdiZeIRS54Myuye9yRuaEV3M8Y3YB2neQVhz1/+BYGRCAiBjoSnORfRhURXEo18FJFCY8zag0xvPPwJwlgpyLRqyxTpJrn57URVEKmZNYeF2e+Wu1iZfT03DI5a3QJr8+I9y6vAuH9NdoKAFQJCoFYwNScQGnlApLCaWLPErj37mw1dfJApLFN087GmFIRadALKCHf4C4j0W++4kv7wjV16zbXPHxk7fNFYln2yxIy5IUvMmsPCfOrxkR/OC8vhY0Oapove6mDh+wpjKYvfGRjZ8iEgBJoPt7HHApHCauIZ+0UQAiU8zURDP3TzA+sUM/lX/9tPGAsVpIrn70GqcEPRSj/9lVe+wIyRfvLXrqV3vOpK072PkCRblSBKzRM+hiwf+wqZ7z8xWVp2ycM6r5sbTd/SZMJcMV10HhoJB5JjQSAPAkKgeVBrUhwmAhBCZ+3Akm7RTYYsiGLrSNNUhoUKUsXz9yBVOBDrC3/304ZcMQQQECxIFi6wYEG2aQ5hEDbsIAfyAvcLH/jvdPx/foKe+urne0/99C1KTPaAKLMmfFLyBIv8JN6GhOGOztryornRyGOWKXCJdxEEhECLoNewuHi23pAFkwbIlMzsvTqTR02QF8gVLiBYkCwchgRAtKMcwiBs2EEO5AUuj14JcfASjwbSgQIAABAASURBVPtAmMgzE+auztry/s21W4/ASk8IL16CQGkICIGWBmWzBIFMMXvfYcuUu/lX8ITJLT3rNB+hNiN3RveTuDFgjSzy1eGbBbrlm0yYyHMz9BQtZgUBIdBZKGnu5jPJnOhZpweWOmvLCgRkrDZFd2PtI8OAri/vxr6tQx9D9mxBQ8++Zak6uBmwdYkbA9bIyhrNsZfVzCsgBDqjVQAEtAmr7Z7lVax97Kwt72JniBWkRUxecCAyEFrgyGKyirZ+hgyDuNizJXwf5MJh8gtpwfWtSSbJ5UXoY8j+nuXD0LNey3JLeTkSBLIQEALNQmjGroOw4GDlwYHIQGiB6/SsQBCdjTNkGMTFni3hFciFw+QX0oITa3LGKtqUZFcIdEoKUrIhCAgC9SMgBFo/5pLi9CIgOZsxBIRAZ6zAJbuCgCBQHgJCoOVhKZIEAUFgxhAQAp2xApfsNhcB0WzyEBACnbwyE40FAUGgIQgIgTakIEQNQUAQmDwEhEAnr8xEY0EgjoD4jAUBIdCxwC6JCgKCwDQgIAQ6DaUoeRAEBIGxICAEOhbYJVFBoEkIiC55ERACzYucxBMEBIGZR0AIdOargAAgCAgCeREQAs2LnMQTBAQBIDDTTgh0potfMi8ICAJFEBACLYKexBUEBIGZRkAIdKaLXzIvCIwXgUlPXQg0VII7Vj+2OHfoo6vtdx8/jD3OQ5flsMkIrB7dtf3Q8RUpuyYX0vTpJgTaL9Pt7z5+xO/639GkPkSa7sQe52iU/SCyaygCKKN2t31WER2lcNlxmTZUZVFrShAQAuWChNWiNN3Bh7ENjbJ9+/37YxfEoxEI7Lj9I3tRRqzMPLvIhjJF2UY85WR6EGhAToRAUQiaVmnUT9Fhkl8jEfCVN7rs2CIl7t43UnlRauIR8CY+BwUzAAuGRcSsF/YLbXp36EQOm4XAvix1dlzatpQVRq4LAnkQmHkCzQOaxBEEBIFJR6Ac/YVAy8FRpAgCgsAMIiAEOoOFLlkWBASBchAQAi0HR5EiCAgCs4PAIKdCoAMo5EAQEAQEATcEhEDd8JLQgoAgIAgMEBACHUAhB4KAICAIuCGQh0DdUpDQgoAgIAhMKQJCoFNasJItQUAQqB4BIdDqMZYUBAFBYEoRqJ1ApxRHyZYgIAjMIAJCoDNY6JJlQUAQKAcBIdBycBQpgoAgMIMITBaBzmABSZYFAUGguQgIgTa3bEQzQUAQaDgCQqANLyBRTxAQBJqLwEQRKD7yhs9r4DMN7UPHT8wdOn4qyXGYYwjTf1lyH/1m7qAjdIXOSXkJ/BAG3/4BBs3MSU+r7avHl6An9A10T9rjG1Rzhz66ivz3Yk74/2r/o3b9eonyrDpvqAuczn5gbd0eWM/KkGbZ0GUu1C5RF6zTQ/zb78/MD+QjHchGfbOWX0HAxhOoqSTvPn64fej+0/jIGyn9AOEzDUT7NNGeJMdhbkMYX3kPcsXS7E4AbOICqgBDZ5HQBTqx09ARukLnpLwEfgiDb/8AA453FgQEbJwTryACKjH0gV6qSw9DT+IyCnRP2itNd2hSH0L+Od45JoJj7Cby21NzfCMYfNSuXy9RniZvXHfLhBxlbtLL2x667WcY79LbA/RiDE4PlzvqApfrsVQMuE322sP9pzn+M4xbZvvW3O6RDmSjvnF+zoJQx9G+G0ugpkBuv/8YCANgEekin9XYB7C5gMYGNAoXhYzChi5cofaxy7stgICAzRzf7au2dNKURLpIH5UY+nC4BXZ5tnluOLexewD4oEHlEVJ3HNRR5F/zjYDTnmcX3/hGApziF9x8kBaICGXeS69Z7UF3fZBkcvkrfRvqfiTHTJzwQ5vstYdC+VkAR0BW3XWneQTKwMKaQUXhBnVbBPTiJ/MB0HNsNTiIKxSUK/5+Llxzd2ZByZWML+TZNNEeY+lw15EYuzwyXOOgMc8xcSNdpO8aPyP8AhoUiLQM4slIK/flOa4/XEdP2+SfcVrNnRCXadPbA+pDJg5aDXoXAXGiLTIuyTcevpBjm1dER+sk0UYRKBoME83ZvjWTAz/rKPOarYY5kAC1dlnHcg3IlZ+J4ATfCB7gqAvsqtz2ATuQdZWJoHLaEkdBPRaYeB4EeRDjWFBWadExXIF6g/rDQm0bf66P2vXbw+k62wPIkPPltl26tJgdQe8Gdm0eeqiAOCPJg0TrqjONIdA53NF5zJKRsK2UHLTYpon29MmtmKCE2KaydOdO8aV97Ora5pEfQzoVpMjkfMxUTqL5CsQnigR5tIFjA0gUlhOGK0y9SdQ2zVOdS7uS5m9uVL32sJAWpmx/5As3R9TdsmVDHmPH7aFQVx1irFxdX2JtBIGiYWq2CK2QmYBAqIDhylK3yoZ0ePy4tHSZvObYWmdyLntIxVJFvbvdbZ8m1sMyQqnBUJ7tLcvJXbam0+TwQ3tQREcdopQZdJ7r7sMg8DKF9mXVduPtp1f5buwEisoyvoZZPr5obFwB+U5L460sPHA/B9IrmkUmrTZbgJpoT1FRBeMvtC/NHSkowy068s6z6FyeDxeYxNzwtqnDtgk3pT0oJvCKSNQWimLhtm07W0yAXeyxEqjpanJDt1O1+aEaQ559qEB6pkH2z/Ps2t02z67W0+3K1E/pwUREZtiCAYLxR9J0Z35R6oxu0d4LR95p1ZgxRNAkYwIkyvWnNszz4xyNyXo/ZIt5NKb72dgIFHc3dDXdVe7FAEik6C6C0+oWTXSQesf3EakzVPePrRXVVUw2lNfyXCet7kMeFOn38PEtOCbOkyJ6KHd2+AZlGmYOAeYGR7QvR1RE2TB6s/7EztP+zSZffEzIJ9E6Ajm6vNjaJ8PliHz7RccfOZ+dtQNLF48sW3XfDVEVIGtgrRXdTZwu2gIcjntYq/ztQeljMAzsASwnZFp+kEdcG5HKump5KyOul3rJK1WapbAdqx9bZBBydMfUGVSMTqtzxeba8t7OPcuHjbv3wImLa8vH+scrqLhey7vBVCCiDUu1CgXLaaltoEKwlXJTZ215sXPvgRXkYXPt1iN8fALHcCava8t8v6GDjJs7mXLDhEXlkkE0aE7wDpc4CGv04xtaZ215l9G7X0YX7n3XqU3kC+fIJ+cX+e41cMS0cpWWJTDicjydJ99b2nMdbdFNKLctv9FHaA9seeLmOzpg/Op6uD1cvGd5FemiLcDhmOvRSoeJvEB74DFRlUe3uLbZPpn5QR5NvWIOQN779WddET1EfPNgbliqy/pEdsZCoP1Fty7WxAbAQkVAxaAjBzNnNQGiqUCtziKARWarciAblu1mqWl1Hxf2IiqErZWCvKPywJrj9JwsOF95x4itK46XvSEcWx7ZAcMh1BnoBf240Z4IX0k7Rr457Aoat2kAaQEDf62s5AbBrfecXyw3Y4we5DgL7PJsbHHr95g6aml1BonkaA89ouGbEOpE9e2BJ/F4LDjQt4J9v30vL9rmB3lGWNSfDuNg6h3fnOFfgX6pIr3UKxVdQNedydBlQuKkIRq2MHOpxGQLIjXWThXWKDc+th5crOkNEA0KPm9hw5pjTJb6d98RsEQuLbT99mrEJ+Vku9/GpIf1DU5z17HDVg70ShE50hs3OzQA08VPD+k0GZMuJnoFNz+2OjFGuS96xf5MsfXDN4GlTbaw7WP1QiL9HO1hCeTRk+D4H2kPDl179GK45+iYWmZwYMd1uUecmaGbF6B2AmXA0DjtkICVtra8Py/RhBMx1g6s0ZLHR/ukZGu1bDCR781LNOH8ABOQcAbpRKKQplUC4VP6bwc3EpcuLDf+g7Ci0yXaXwEBMT43cR15KBwL5yAoEG3Yv9Ax4wCrk29+eMjB+mYxlKaxOkH+uXVT2v7mW3p72NxLDu3Bv6Tt2y5Z/Dg/wA512SJ0I4PUSqCwPhkFO7JhcEEQHL68DXffFioNOXV/RyoAUhoZYHDRkCeIfOBTwoEhHbYALUXN9wk/NbhLI9FEB3NbQikaAB80qg7GfDGWyHuc5yaohHRQD4tanSzW9Iw2c1idHNds0IMPGtAeLC1RnpDEDZZ1Lr5V0b6La+UsoVYCVaSsupDEd8XSyZP6PyZRtnJKWZrRbwBW1gt32/eDHPpalLqDBai4G2klVNMKpf3YKmOLLMAmLZTxR7e9bPI0gkN/ZeOFxo+1sYwVFqlblVtIneBwg3qTZIV7Rtz40ssiSI33rO9DVbYHr6VQ5lYTdF3ft2zDrHjqps50tm2WICc1gdoucBnWkxYqL1m+UUm3tFXFyqu5aZg8Y5c3fhBPEaHiUeaP77aldNtHJLTZ6kAXm0awgHG3JFHbu23IsCGW9Ytep9zuXJJCJfrN4VHhrn9aE7mMvw9rYKxOJrPCk1loD5a6bFS9LMdY91pZtTke3kEdGcbF6dzT3VViQ8YpUkMD10agutu1A57JxhBcxYBhYomTKNqV38cysraNWu62qJCKrMbTtKd57ItiP6VVov9wQE10eJIagK+8Y7r3qLDNzYESfuvcg7i5U9J4PORbtwcuU0NwiFShw01BEUXGnlOSWyi0LpTbd9XGRIrelXjXR6Ck9trkwOWxNxt5o8LwBIwV4STJwJrBJP9hP63oWF1k0/E6yE+mFZpKlErblNG6TdedmvVbyKsOl9/dPEu8VHaj15btoV+medV3iqe1Qv3JjON1tU09SZRTZ/tOVKBkz9oIlPW2Af1kHXdb1sVsm62LuRcI+55nkx9qeZ5VpTQKFf2DFWq1VlLHXk6NLiUnn0k0RW46LH+SNmN1Yny5ohvgUjYY6gzeKoSbdR3Ooy7WV2fegLUl+cfzp87U2b7j6Zfv45UvMkEiJieIMrtPmqjw2BK5/EA4RCddogzC+mpxcJx+sD6GCmOFIRpkRG2rdzoS+S11KhJvSk8U0dmyrc4hqDJvVsRzBr7yHqzTsY6Z7ZSxyfcOXaWt6ibrMDFbLQSKu6gVIi2yem6YyvwpypWmUjqbQLWqnWwwlkU5flopC4uINuoYn6Yc+pcdRRPt4cm23D2UUfoUGkMcJbima8AmT1Ke79feHvLo6RKnFgK1VWgcjbPSQvU0nnCxzX6Z4TInx4aHIJhAM60KRZTrZkOT+lP6NrxYpGz1W5f8TKzLTrMJ8i5suzR19adRBNqEQrbVQRNlW2y+GkuFUdz9JPmVgoDSdEd/vW8p8mZaSG/IbKogEALNX5yZY0Veb1A+fwoSMwcC5UfhG1KtHyorPwcisSoEhEDzI5vZTeZucbaVmj99iZkTASbEhxTeueoQn+McmfSxS4fsZgXNnKnPEjAt12eeQLvKy54MSihtblCZ45tMoGMZ67IaXkjIU5aXJjWW/GTp5XDdPIaJZ+s31249ookOOsSdV106JSTKiFktleNwM7B5deSxu83D+rLMpGJLazJjlBBA0RJl/zKtzUQRmmxkU5m//nrO7OGF4RlRq/Ha+PrRMnWvWFbsMUzzQIBW94XSzTpkElX271VNk1bHsisJAAALl0lEQVTT93rSki/mPz3PsRfDoRfb6+2q/bedXe96nt3jniWqqyweX1QJkzK+3fInq8X2JWaHul3fKs3hm5rteG379vtrL6Oi+KC73kl5DLNz74EVciJRvbvdnTtFvbXNuVQbw9rgXHpGI6kzpOiuDt5mNoWTQdG82p959kGLhuQCyBChNNXaOHvWWrZVpRXF1q95Wmd24Ylovm7CYbK3wnD4puawaNxKPue9MZvSeuRqCEOilF0/tzIEEm0XXCNqkx5be2vLism/Ae7Aknl/hJDnVjXgo/oI1O7b2At1duOt332Z0L21fSJHKb3KONey9W4ItC8rMSbZlJdGWDRqfBmzgPWVpdu4rhvLyolEaR/fHCMk6qK7Vjp2U47H17vrbA/x9MUnC4HaCNSuwhBp5dXymjRDNkrflgUQrne2bcYqe9+Cyxwb1UR76moEfte3eu4+yaJGPi3LKPOlzJA1cY4tqx6Jkv0MM9efvF88Vb6K1akkzOpqD0lpi182Al52kHJCXGx1rJ6DBeHg3Y3lpJoupf8hr/QAW1dOEjeurdOtIyYiqzz5qmVFbFuS3Y/6JJ1pfUKy9ihZb4/sLCpNd07lbDSXs24RxpDtSRRYHDq+Qo4/HjZAGWSmg/bAlu7EDZs4wjGxwWsjUENCloP1mtThKhsoCFqzZWhTahwOFT05qC3hkN5dxSOBA6W4S+0rL13PQUAcqDN96xknEdf3z7SqEUl1VfHZaAhqmAMGriSqiI7mIrnwcqBROCh9rMr2MCppuTYaAW/05XKv8kyvnYXDky9VNVA8lqd7L9e1ydyGWeqSEhKNjRtPynhiNBJPkFXzSCCTp5kVZsyiKSafadIjrWFNdJisfmVMpKQkxHmCRR24lFCVeaNcGQe3sescJOfwbsxylk+lIAZyBtbYpwQR7xQEaiVQzPTaEg6PhprlImasMkV5V2+QJ6eP7+HYRVU0kmyIf0r7loRDhLShA5X1Y6LpkaeOvd8zJYnMlyH3bxhWViinsc982ZL14ONSNowptrvtZ9iifjBwnMbZuhs3cGASPeiQKSY5clpo31/OZPk6Rdyw5k6V2R5gNQNb1aWHgTX2OAeZOuR7poN6defeb5HDnV3v5omR0yhoKvLjBo4uNAjMQcy6WbaREcHtpkCGRDk/hbu/qORMNGdxoyHbn1ZW2DNxWN8UOOl97e6cE3FwnNgGYpg7dPwU8Zhi7CLRAjfuUskjIY2YlyFRRXfHLqR7MIkqp7L1Wp5VmfSSTGsPvasu/7hRkdIPcJwFduFtAWRa9w0rrMAkHXt1K2u6R46VEgWNxoVG5qovLL52t30aXWiXuJ72rScG+h/9ypwQGKSP2dtu+yx0G/hZHgADEDAqOUeZZ2e1KSJ82dFqnBTEgfBWgk0gvZsJ7mHoBf2Ml+0f39zQmHGjZOIe9cG3eetlZ7ZpW4Qzb6TXyuFppZ6lSJwvC/FkrFBFd9mE7YeZD9pDHpIzN95D95+m5BtVPwkiLk+XmyjN6q92AgXQplK6rbnj8qY93Mi+AyIF8YxqqKhYsDjRHWEiQJd9+C4LNVKdZoKHZZkaYOgCGgE3fgdLwgiYh27QEbqiYhvfpD9ujMgzhz0BDLgBWS2/Cona2Ox9tTPkNfrQ+aYAcXxjgH4gUnb7R5EI8ot8883tLBfunRx9nt3oze6x29EyclzlGfMVLiurse6eeJBo23a8n3o9HXWmF9fun+vbHia5h23aA9rK3KGPrraZOH3lPUg8qWmRyj6LMDMfZCwECtRdvkWN8IEzFYfoqGmoh46fm+NuX9gxyWhUrL7F6UScvTR4lvqeZVcyJFht5GSp9FLj/wXoiooN3dtcyedCeWK/c0wyz3ADPsph97Fz3sys8pGDVu8jCITjpsBWeL7lM0ykTPIPQG/W/2w0P/efZj+N/CLfnF42cXKg3qZzvfilF7fYf+8G5ERy+/gmYk2iVbYHtBVtJk510lh5MWBmPPbYCBQN1DRsIvuub7yw5jXRnrCLB3HxUWc6eNbXJUoorLulEoo8ONS7h/LjQDADIYMDlnUQwyYDD4cDWOGI7xAlKegCyxiUkaX1kySH+CYy8pHMxEhlefINqF83bCfYiG8it2F4gix+DWwPRdqlRY6nI8jYCBTwmYat1QofN6Cw+uTJDYX1yb3lsFRyp5UVkYnroLGMswKOuI74kDMiSG2XtOVndytTiOsG3/RhldvXVx5rxHCFjU5oDyx/L4e1l8+Bq9i0ImvrmWb4N1YCBe5stZ0Yf6UphzyRHzww0LdULJenmFil/4H0QH5lCIYcyCtDVm4ZPDyCupI7fkkR85CcrzzrIaE88kvKWkiMOnPR61hNIoUizeSh14Rcb1UapzGmclRHw0S3na2LcgSyFJbVWVver3kyis/q3jb4hnQTSK/MhCGPx0RvZpm1W0fmdXR47Rwn3oTN1Fcia1Ikm+9ncaBgg3yv5S2R40QrlfM7aQwArsPliJtuKV5TsodKg4KrkXQ2YFWxVbNCFVUWs9pAq1sY47pIhyt/ZxFYcpqlbxgT7bQ6i4rIYUa6kBrrIO3NtVszH2golEqOyLihoP7YRGW8ztqEC4fBmGjd7cHcqPjGX1V7COdvWo4bQ6AGUCYykA4aDVe66hqpsTqZaNaWKx/nYYI+AdKp+MZgiKZTR+XnMsInMfrkYT+hYgrY+m+DFN3FuC2BtDNiZQ2VbFyo6HO6hkQtehm+3cu349lkrOtqD7B4N3PeqCzxjZdTPMcT59MsAu3Dh0aDRkpsvZVIpPgezn1cUW5gUqvM6uxnIboLGkLLu6FPpBvRAHnP1BkQWWdteRGY5ZWSJx7IA+kifY5fFpFu9Ilz0ayNZNxY9siNhytGj9UpOlKlRQWC43o6aqH9RtHxRJQt2kPphgUbEkF7gMVLeX8oJ77hjYrOujeuFzFKX9trjSTQQHkmuhOm4jDxoHuRg0wNaaKRszWzyPJWClWUQLGce6SNBsfEs4sb3S3s0PCcyMdgwJWVieOmztqBJRBZTnVKiYb0O0zg0Kd3c1BOC8JZiXWDA98sWc4uW+LkeGbDcAXKl0822EU26GPkRXzLP0G9MnmIi15nXPaWReADIi3SHohOAi9uD1dAb9TJuNruPsAZeCfENENl0D3h2sR7NZpAA3RRyJvcvQCZdtaWFVfKm/iOdjOslWGHyoFr5s66trwLlQSNvKxKHOhUdM96nWC3wvlZRGWGztB9OD84N9daxIS5rAwG9ywfBnEU1aHM+NCnd3M4sMR5UtCZmBSh/7BDPnEd+eaw5sbGWFg9ZpqkM8qXZS1CbpAWyh/6JIWvwo/1X0G9HKSv/ZtZpyXgUnZ6Lu0BhgewBh6M9S52+4FXFe0BeCOdAAOUB2OwaNIrGwRqhsCJINBhqFApcUfDXW/YobBwDZVsOF5jz7kLBJ2h+3B+cG6uHVke3yLyHMBBZyaVE9B/2CGfuF5qI2YMITdIaxzlj3o5SP/ed50qNX8jygDpAs8g7fB+kw0PXKsLD6QTpI/yqAuDEfBUemkiCbRSRES4ICAICAKWCAiBWgIlwQQBQWBqECgtI0KgpUEpggQBQWDWEBACnbUSl/wKAoJAaQgIgZYGpQgSBASBWUAgnEch0DAaciwICAKCgAMCQqAOYElQQUAQEATCCAiBhtGQY0FAEBAEHBBwJlAH2RJUEBAEBIGpRkAIdKqLVzInCAgCVSIgBFoluiJbEBAEphqBegl0qqGUzAkCgsCsISAEOmslLvkVBASB0hAQAi0NShEkCAgCs4bABBHorBWN5FcQEASajoAQaNNLSPQTBASBxiIgBNrYohHFBAFBoOkIzAqBNr0cRD9BQBCYQASEQCew0ERlQUAQaAYCQqDNKAfRQhAQBCYQASFQi0KTIIKAICAIJCEgBJqEivgJAoKAIGCBgBCoBUgSRBAQBASBJASEQJNQKdNPZAkCgsDUIvD/AQAA//9vzHZZAAAABklEQVQDAFNb2j0sjGv3AAAAAElFTkSuQmCC;" vertex="1" parent="1">
          <mxGeometry x="140" y="160" width="66.73" height="57" as="geometry" />
        </mxCell>
        <mxCell id="hI0YtmNNRfd8naDbK4rW-6" value="App &#xa;avec Syslog (client)" style="shape=image;verticalLabelPosition=bottom;labelBackgroundColor=default;verticalAlign=top;aspect=fixed;imageAspect=0;image=data:image/png,iVBORw0KGgoAAAANSUhEUgAAAVAAAAEfCAYAAAAX5p5gAAAQAElEQVR4Aex9e7AkV3nfd3p25+5GiLt6gBAI3auIgDGPveKRQOJiVyaxMY69K9tVgb2idNf5I4mjRZckhUNSLq1MqkhwXKx05SRVsdmVYUWlKol2ocrgKrBWEEIwDtrlYR6RzF4hkAVI2ssKtHd2p0++35npud3T3dPn9Gt6Zr6pPtPdp8/5znd+55xff+fR3R7JTxAQBAQBQSAXAkKguWCTSIKAICAIEAmBSi0QBAQBQSAnAoUINGeaEk0QEAQEgalAQAh0KopRMiEICALjQEAIdByoS5qCgCAwFQiMj0CnAj7JhCAgCMwyAkKgs1z6kndBQBAohIAQaCH4JLIgIAjMMgITSqCzXGSSd0FAEGgKAkKgTSkJ0UMQEAQmDgEh0IkrMlFYEBAEmoLALBJoU7AXPQQBQWDCERACnfACFPUFAUFgfAgIgY4Pe0lZEBAEJhwBIVDHApTggoAgIAgECAiBBkjIXhAQBAQBRwSEQB0Bk+CCgCAgCAQICIEGSNSxlzQEAUFgqhAQAp2q4pTMCAKCQJ0ICIHWibakJQgIAlOFgBDoxBSnKCoICAJNQ0AItGklIvoIAoLAxCAgBDoxRSWKCgKCQNMQEAJtWolUo49IFQQEgQoQEAKtAFQRWQyB7avHl+YOHT81DldMc4k9awgIgc5aiU9AfluX/F2aaM843ATAIyo2CAEh0AYVRlNVEb0EAUEgGQEh0GRcxFcQEAQEgUwEhEAzIZIATUBAXX39eulu/oVPNiFvosPkIiAEOrllNxmal6Sl95JXLpTt1NUL15SknoiZUQSEQGe04CXbgoAgUBwBIdDiGIoEQUAQmFEEhEBntOAnI9vJWurnfkz+o18yLhzC1T8cV44FgTwICIHmQU3ijBeB7iXSzz5tXEQRV/9IZDkRBNwREAJ1x0xiCAKCgCBgEBACNTDI3xQiIFkSBCpHQAi0coglAUFAEJhWBIRAp7VkJV+CgCBQOQJCoJVDLAlMIgKisyBgg4AQqA1KEkYQEAQEgQQEhEATQBEvQUAQEARsEBACtUFJwggCLghI2JlBQAh0ZopaMioICAJlIyAEWjaiIk8QEARmBgEh0Jkp6unJqGrvJHXNy4wL58rVPxy3OceiySQhIAQ6SaUluvYQYAL1XnQjwfU8+v+u/v1oshME8iIgBJoXOYknCAgCM4+AEOjMVwEBYIoQkKzUjIAQaM2AV5Hc9tXjS3OHjp+aFuer1pFhnLrf/NxjZTv/8a8/NpyOnAsCLggIgbqg1dCwrUv+Lk20Z1ockd4dg3rzp9dTFS6WkHgIAvYICIHaYyUhBYGpRkAy546AEKg7ZhJDEBAEBAGDgBCogWH6/tTV16+X7uZf+OQwUqWnAb3HmM5w/uRcEBiFgBDoKHQm+FrZ31CHPJXwHXX4l+3Gmc6kFXn79vv3sztGq0d3jVX3GU1cCHRGC16yPQUIgDSVPkZK39buts/uuP0je6cgVxOVBW+itBVlBQFBYIBA+9IclnvN9z3mfeU9uP3dx4+INdpHpIadEGgNII87CdfvpaeFz8pHWjxX/6akk6XHOK8ba5Mtz2EdlKY72Bo9jbXBw9eaez65mgmBTm7Z2WvevUT62aeNi0Ry9Y9ETjhxlZcWPkF0xCstnqt/ROgEnXDXna3NYyM0XlBdenj7oeMrI8LIpRIQEAItAUQRIQjUicB2v32Y01tgN3JTREdNl35kKLlYBAEh0CLoSVxBoGYE0DVHNz2crDe3k7zrXxv2GhwjrJmlH/hM3cFYMyQEOlb4JXFBwA0Br0uYOKLI77pXk7riWmq9+q0EMo1cwwmPlQqJAojynRBo+ZiKREGgEgQwcaSJ9oSFq+ddSXDGr7WN1M+8hdRV15nTyJ+QaASOsk6EQMtCUuQIAhUj4FMrNinkvfTVsVS9616VSqJzhz66Goswwx5Fsy4EWhRBiS8I1IDAjtWPLWLBfDgpY2m2d4a9BsdpJKpJfYi78/sHAeWgEAJCoIXgk8iCQD0I6G43RnrqqpeOTDyNRJmIjxlCHhlbLtogIARqg5KEEQTGjIAmL9J9x2SR2vn8TK0MifI46VDAed31R60jHQoup4kIsKfHTjZBQBBoMAI9azH6kmm96yXWGns3vjE2O695MkrGQ60hTA0oBJoKjVwQBJqBQLfrx14S4l35YjflFpZi4TWpw7Qqb3GKAePgIQTqANakBlXtnaSueZlx4Ty4+ofjJh27yksLnyQ77JcWz9U/LLPJx0qrCIGi+05cpi46K+7uow4MxZnvP9U05C2ntgjkJ1DbFCTc+BFo7yTvRTcaF1HG1T8SOeHEVV5a+ATREa+0eK7+EaENPlE6QqD6eVflUtbUgbmdkbhK0x29IYKIt5xYIiAEagmUBBMExojAQjhtddmV4VO34+vi60Z9349MULkJnO3QQqCzXf6S+4YjgKePhlVUl+V/+TyeWoKLyNQki+sp329MBJpP2UmLhRc/zB06fqpq56tW7Pno7jc/91jZzn/8648Nl0HZaUDeONOpuqwC+cM4pp371IqzJQ9VpIW38VdXxh71nJfF9TbIxcMIgcYxKc2ndcnfpYn2VO2IoktcTAY2f3o9VeGM8NBfFWlAZigJcwi/KpwRvvVXdVkF8rdSzDjydGT63EwgZUTJuowXjySEiS3UTwgjXkMICIEOASKngkCTEdDbo5NAeXVVwy8cGZqoyit31uJNIoHOWhlJfgWB0hFImIhakNl4d5iFQN0xKxRDXX39eulu/oVPDitVehrQW9LJV3YJuA2XV+q5rxZTrxW4oJ7/glhs/1J0uCAWQDxiCAiBxiCp1sN7ySsXynbq6oVrhrUuOw3Ik3TylV0SbsPllXaulI4SaJElTOFEWttij3dyWqv4BAgmutqH7j/dPnRcZ7v7T8/xRCnitd99/LBZNTBDTzfNHIGG65AcCwJNR0ArOkXh30+eDp8VOh4eT9U84YmF9dgnTkwmpqZ3IzzikaY7feU92O62n2mDgJlQsRIlMdqUeAqBTklBSjYEAWcEyrJmExPWu0Go+DooyHRavxAqBJpY+PV46ud+TP6jXzIunKKrfzhu0rGrvLTwSbLDfmnxXP3DMpOOXeWlhU+SHfZLi+fqH5Y5m8d6tyI6Osdd/WmbqBICdanRZYftXiL97NPGRUS7+kciJ5y4yksLnyA64pUWz9U/IjThxFVeWvgE0RGvtHiu/hGhbida01kK/VBfQqelH+IpJeOuus68fMa7/rWU5vByEiyHMu552Y+Xoqvvd30eM52ez4oIgZZeBUWgIFAeAi3tRwjUSO48Z3Zl/AVkCZJsveLvEU8W9tzVC+TtuobUzstTHa57CAf3kleSiX/jGw3xQm6KfvOa1IemxRoVAk0pZfEWBJqAwIVtl04P66F/cm7YK9e5d+WLB2QJoswlZCiS2tY2xGuIGGTKluxQEHOqecIK1uikTzIJgZrirONP0hAEciBw5CCzpToTjqnLmon3u2GxpR8bMoV1imGAuZ1J8s9dPLIcu0EkBWyqnxBoU0tG9BIEAgQ0RUhGPfsUFf6VOAyQpYviYYCkT5CwFXo4K27TrwuBNr2ERD9BgOgEhX7+5nPxicfQdavDiq3PYR3Uue8Ne21cXFue+A/bCYEOF2szz0WrGUagc+8BEOhGGAJ97onwqdtxjdYnFPPPPUkgfRwPnKLYKxhpAn9CoBNYaKLyDCKgFUh0kHH91ONEeYmwRutTa5/0k48M9O4fbHS8jhBoHwzZCQKCQMUI6G06Rjj+D/7KPdW8pOuekomhn/qu2Yf/FOnDZCbHwr6TeSwW6GSWm5PWEnjyEcBstSJ6KJwTWKFOC+u7l4jqsj69FqHrDh3DOvPx+ubarbGbAftP5CYEOpHFJkrPIgJK+/FZ68e/RgRitAGke9EmVClhNFu6CV138rS/UkoCDREiBDrGglDtnb2nNq55WUQLV/9I5IQTV3lp4RNER7zS4rn6R4QmnLjKSwufIDrilRbP1T8itMDJhXvfdYqjn2Q32DA54599eHCeegCSrcn6xLgngdiHldHqvn4ehq9M7LkQ6DiLjgnUfKv7RTdGtXD1j8aOn7nKC4ePS0v3SYvn6p+eQu+Kq7y08D1p6f9p8Vz901OwvoKPvuHxR46wj11kQzfe/+tHI36xk5qsT0Oe66fjs+6kznS2ba7G9JpwDyHQCS9AUX96EcDLic2Lig8dP0tKP6CJ9iTlFi/z8F6wkHSp51eT9amfO0+USJ60oVt6ZVomjnqg9v6FQHs4yL8gMFYEQJawMvFWd1iaeBM8Xk6sNN3BiqWyI14C4l33KqLWNg6WstVgfWLCyH/sKwmWJ2Hccz8mwVK0m2hvIVCH4sOLD1C5bZ0/899r/9xj3W+6O//xrz82XCx55GTFGWc6qENMkmfZmc9m+Mp7kNjKJE13aqJESzOMCazO1qvfSuqKa8Pe8eOKrU99qUP+976RtNbT6MJ5OTht454mY/0/IdA+EDY7r6v3coXYY+uI9O6Y3M2fXk9VuOGEqkgDMiWdfOU3hBvqEHstsHPa8A7O1ivfQplWZyD14oXgqNR9QJx4ITjGYBOEb/CM+83T8LhmQt4GXkKgAyiyD3yloh/4yo4iIQSBwgjA2kRXvbX7FwmTjsSTWFZCO+W9NxTpae2btZ2wOEcQJwdVZ3SL9k6z5cmZNJsQqIHB7s/TtETyqwuBmUzHm9tJeBkxLE3v5W8mQ5o8xpnZVU9Cq+CyJUwKmbHNH62TPvtl8r/9BdNVT7E4jQZa0d2d1ubeaR3zNJkM/QmBhsBwPTQV/arrCBbCwF3zssHaTjQCcYLHqDoAy9K78Y0UkKX6Ge6e4/xFN5La+XzXKrkVPsX6NNYjj1mO2ne/9XmCw6QQFsPjaSKsN90SHj9SRA+x1XnTxXuWV2lKHtOM5zLuIwQaxyTVpz9utXX9sitp8EkDvDgWjis+ulnibjTdTcFhNA6wLM2NuAhZbtXI3lHKxBGsSViPWa4nxO4fxImxzs215ZmxOsPICIGG0XA8VnN/wzGGBK8LgZlOJ23iqKw32ROto6vutbwbQJyzMNaZVp+EQNOQyeuPu3/euBJPECiKQEr9w3gmLM+c4tc53klF+j3opnfWlhfRVb9w5J1n2X+mNyHQmS5+yfzUIZBkfXot0k8/Hs+qorsowYEo0S2HY7JU7BbZ7d9cu/XIrEwOxcFK9hECTcZFfGcZgUnNe8rEke5ejH8CRKv7OvcsH05yIEp0y+EmFYq69BYCrQtpSUcQqBIBdN1Tli3phJcae9Sd+O8RVQmnrWwhUFukbMPx3d42qIQTBEpDIKnr3heOZUj9w/5OnRHrsg9FwZ0QaEEAJbogEEVgDGcpXXdogqVL2IedJj01b4QP52scx0KgZaOe0o0qOxmRJwgYBEZ03XFdnfsedmG3Pu3Pp4czW/WxEKgbwljOMYihN386OJYDQWAsCIzousP6HH6CiGfYEYS0TAAAEABJREFUxfossaCEQB3AVETRdW+XUt50A6uA5CcIOCPgFmFE1x2CEqzPjc3WRZk8AjglOSHQkoAUMYJArQjgJj1iuCjJ+iRFR2bpOXWq4ScE6gCy1ipqgaZ14WUm3gFVCZoLgRFdd7x2Lsn67Hgd6b7nAjs9khBoOjbxK56OEmg8hPgIAtUjkNJ1DxLGus/hsU+xPgN0yt0LgTrgqTVFCDT12eIRXSuSnyBQBIGMrjusz/i6T1rHE0dFkpW4yQgIgSbjkujb0n6EQBEIFRb7mENFj3mKhyBQAAHUqRFdd0jW3/8WdhGniQ6T/CpBQAjUAdYL2y6djgW/8JOYl3gIApUgkEWez52PP/NO6ozVus9KFJ5+oUKgLmXce9P2RjhK6lpQmUgKwyTHRRHIGPeE+KQ3Lnm6u4pr4qpBQAjUEVdFFLVC015SK+OgJL+SEEDXPaM+YdlSwpj8SXnmvaQySBEjBJoCTJq3ryhCoOriiC8fouKT/ASBAgigDl1MeWCjLxbj8Ph2Uf802G14La8m6zNIcvb23uxluWCONUUIFMtFUIFJfoJAFQhkkCeSTJo4wrIleWM80KnWCYE64ttqeadiUdImkmQcNAaVeDggkDXu6bUopesuy5YcYC4S1CsSeRbj9u/q0YmkGRwHfcEOj95y7XZ639IOs8f5LNaHyvIM8swY9zRvmn/ykZgKnvZXYp7N9ZhozYRA8xVfxApVzz6VLgVjWOlXJ+7Ka67w6JNvv5zWl6+gT739+fQ7r7/M7HEOf5DqxGWqaQpbkCdUTuq642uZMnEEdOpxQqA5cNZEJyj0GzkOOkXd+Hfc2KYv/toVtOfadij3W4fwB6ki3JavHDkhgBtuhuUJeWld94teRxbNA6CanBBoDqBbCeOgeuOHyZIsGkNyxGb5wvL88N7LI0r96V9+n/7y+8/Q40+fj/gjnJBoBBK7E5CnzaQRFsyndd17a5Xt0puCUOPOghBojhLojYOqM5GoaeOgCISGgf0Euw+++bKB9iDNf/Iv/w39wQfupH/92++l37rjX9CnHvzs4DoOfve1+BdnjQDqiA15ap/oyf8XF6voLum6x2Gp2kcINCfCWunIOCgWMacuZ5rwbjysT3TPAdX58+fp7t//PXriB1sW97UvfAG97ea34PLAXXfl5SRW6ACO7AML8oQQjHtiyAjHW06dkZeFbKFR55EQaF60PYq92Xtau/H/cGFrzPPzf/FwhDxpxO+Gy6V6jYBn69KFZ7eORxyljHtueC21f0Q0uZSGQAn+UsNzgnjxyDIW1Ee+kUSjuvGYWc2ZVtOjwRr9wN3/2XTjh7vyTdd97PpZkqdOGfckrVZ6Q0pjz8lMKiAEWqDYtaLIbLzpxl/qUOJvSiaTEvPGnl/4iy/Tf/rwR+jhr3ydz2SzQsCBPP3HvhITyfXv7s69ByJ1MBZIPCpFQAi0ALwtz4t9IkGfeyJdIiYK0q829sp3zvPERV+761/xmv5R8u6m174q+YL4RhGwJc+USSNF9NDFe5blWfcoqjWe9ZLyejv5z4MAuk6oyOG4atSiesuJgrC8Jhx/5nuX6LnNnmX9sy++gt78htclqgX/8GTSH36zFycx8Cx7WpKngWj9NMUnjWh9s9WRcU8D0Hj/hEAL4s+2WWQyCZUdg/2pYifQCv3hBZ/+49cuDrL0vjv+Gf3Wb75rQKQgTpzDPwj0/v/7E0K84Fz2fQQcyNP/3jeSyHNDt2g/yXpPasJPCLRgKfTf9r0eFpPwRcStyxNqhX7g9AWzaD7ICCxNEObHP/JfCXucB9ewTlSszwCN0N6RPDGmHordO+RJo/4EZu9c/seKQE4CHavOzUtc0dRbocS/X3qQB96e6PBR+vYQX0c4sT5DGKHXUQJ5aqKDMmkUwrUBh0KgJRRCx+tgMinyhqZptEJBir/0J+fpbX/yY8JjnCDLwOEc/riOcCXAOh0iQJ4OvQ502xMtT0V39Xs704HLlORCCLSMgsR4lCKQKAW/zLHQCV4X+tknLtItX5gjkGXgcA7/IP+yZwTKIk+t7pMnjRjPBm7jINAGwlBcJWcrFOtC0cCKJy0SmogAbpBlWJ4gz3sPrDQxi6ITkRBoWbUgzQr9UWR+KZqaQwOLRizvTD/zBPl//Wh5AkUSEcgTN0hLLFK77UKelgiOL5gQaInYJ1mh+qnHSac9nYS00diwr9mBOPU3P0t4wsV8kGxMetSc7WqTQ48Ck0WW5ImXzwh5VlskVUufOAKtGpBC8tkK5ZnS2NMh+skRFh4aGxpeoYTtI4eJE+O0QUz/B38VHMo+DwIoQ4ceBciT1k9T4oSRWJ55SmAscYRAS4YdM6WK6KGwWDSSkYvr0fDQAMORyjxm69J//OvUPfOnxuIME2eQjLGUn/txcCp7FwQYX0IZWsbBi0FAnknlQEKelig2I5gQaAXl4LcowQp9ZHRX3qEBks2PGzXGNtFN737jswSCTIvmze2k9/78y+lTv/6StCDin4QAbnqOXXaQJ4ZNkshTkX5PRyaMkpBurN9sEWhNxWCeFFF0Vyy5x78W84p4oDFGPBxOuDGjew5Lc0CaTz6S9CjgQGhAnE//u1+m9+9/g/nWkbwEeQDP6AO+QblYnRCmn/qu6QHgeNjx0M/BzbVbI0vhhsPIefMQEAKtqEw69ywfJop+9gNWR/dbnydMHPg8Ow9rJDbBlEWiIMpnnyZDljx77j/6JTKE+bXPmMYJSxPp0Ijf4pWXGYszIM6dc1svTP6DN8/RC3ZItUiFj/EnlBHGrlMDRS9gvBNljrKJXjFnG572b8bQjzmTv4lCQFpKhcWlW3qFxUeeUOJzM3Ggn2Dr8JE/J/8bn6PuVz/Tc0yu+uyXDSGCGMMO45fGgSiZNNEN1GxhmvHVzecgNtP9o9ddT0dvfRN96/A+Y3GGiTOIDL8//vmt7x8F/rJnBPJYnc+dJ0qbLCJ1Rrdor3zLiLGd0E0I1Lrg3AOiK6+JVsn217lA/vlnjNNPf79HtLA22dmKGA73czdeTf/hV19Djx7+FfrjlZ+jA3/7bw4HiZ3j+0fvW9oR859ZjxxWJ7BCLwM3upQewclOa3Mv6gjCiptMBIRAKy430zXjmdVYMm0LgmJCjcXL8ED3PLA0z/3eb9Bn7vgFWv37ryF85C0jauTy77z+MnrLtdsjfjN3AuLMaXWansRTjydDxuPjnbVleSVdMjoT5SsEWkNxdbZtshUaHQ81ydqSaAqRgixhYWIG/eP/dK+xMtE9DyxNdMdNOjn/HnjrDsIXOXNGn9xoYeJ0GOtEhjOsTjPe2RsfR2hxk46AEGgdJXjk4Dl01zip2Hjo4ouuoqO/ude4977ttZTm0A0HScKhO755zwEzlgkL8/08g/6LP/tiZyuT9Rm5gYCPvolma1IpsDgdidNMCGL8OsXqxNrgTquzKOOdI6vcxF0UAq2ryPCUUov2ElGERM8+/RP6oy88Qlc9bwe9962vSHX/+O8s0t996eVUBVGyTqkbPuHxyZunnEQDi9Nxdh2gae1TltWpSL9nc215L3EdQBxx04OAEGiNZYkJA8y6cpIREv1fj/6I9h/9Iv3v7/KMLV8ctZ0/f57gRoUp+xpIdCpn5gPixEMMjhYnMPbPPUn+t7+Q+pACrE6v5S1tyvpOwDWVTgi05mJNI1HM1IJEP/GNH8Y0SvIAiQYfeku6Xrbfnmvb9MCbN8sWOx55BYlz0F1/8pE0/TdU3+q8cOSdZ9MCif/kIyAEOoYyHEWiBz/6f+iDn/mWlVaXOpvGGq2LSDF88Mm3Xz65Y6IY30Q3PafFCeLEgvgRS5NIrE6rqjs1gYRAx1SUaSQKdT74Z9+m/R/+Am1cxFm2q5NIYYlO1JhoYG2COHN004F+mDjx4AL8Etw6aXULxjrF6kxAZ0q9hEDHWLAgUYyREcWXOGFc9G994NNW46LU/4WJdGCV9q+VuQvGRBu7xClMmjmtTeBlSZwbbHbe1VlbXuzce+AE4ombHQSEQMdc1rBW+kucTg6rgnHRX/0vp+if/48zZGuNQgaIFC4YJ62CTGGJnvrly6gRLx8BYcIV7KIDOzhMDumzX+69W2DUU2Ba3YelSbKuE6jNphMCbUK5Hzl4ji2Y/bBkktT5b19+jGCN/tEX3ecjQKRwVZAp1ol+eO/lVPtjnyBLuDBhFrA0gTle6oLlSF28j4Anh3Dzgn+iY+LknsMNbHGuyNKkRIRmxlMItEFFDUsGb+ZhldbZRTY06N/++FfN2KjNcqdI5P4JiBQOZAoHyxSufzlhZ+eFxz4rm1wCUcKBLOEwlgmyhMs5phnOFaxNMzH06JdSlyMNwoeIEz2Hgb8czCwCQqANK3o8qcLdwiVW6yS72IaxUXTrMcmUl0gDoSBTOJBp4ECogQvC2ezRpf/mb1yWzxoFQQYOJAkHooQDUcKBLOFslMkIE4xtBtbmiImhniQhzh4O8h9DQAg0BkkDPPpd+jRrFBqGidR27SjiZTkQauACUg3vA3JN2kP2v3r1doI1aiaYAlLEHqQYdiDHwIEgAweShIOwEp0hTbyD1WZss5dub3Ko1bkCXXWxOHugyH8UASHQKB6NOhtYo4ruYsU22MU2ECnWjr7h9/+MMEb63fOXYmHK9AjIddT+dc/bpE//g230vtc/j3apC2Te3A5SDDuq9mcescSTQt/7BsHSxNpNvNAYQyGjUsY6Tk10kMekd2FIhfhmNiq8XJttBIRAm17+3IDRkHnSYom4K5mmLp6pxxjpTf/+k2bWHmTqMnOfJreI/+rLffrzX7+S3vemq2nX1kvvi4gcGTdiZeIRS54Myuye9yRuaEV3M8Y3YB2neQVhz1/+BYGRCAiBjoSnORfRhURXEo18FJFCY8zag0xvPPwJwlgpyLRqyxTpJrn57URVEKmZNYeF2e+Wu1iZfT03DI5a3QJr8+I9y6vAuH9NdoKAFQJCoFYwNScQGnlApLCaWLPErj37mw1dfJApLFN087GmFIRadALKCHf4C4j0W++4kv7wjV16zbXPHxk7fNFYln2yxIy5IUvMmsPCfOrxkR/OC8vhY0Oapove6mDh+wpjKYvfGRjZ8iEgBJoPt7HHApHCauIZ+0UQAiU8zURDP3TzA+sUM/lX/9tPGAsVpIrn70GqcEPRSj/9lVe+wIyRfvLXrqV3vOpK072PkCRblSBKzRM+hiwf+wqZ7z8xWVp2ycM6r5sbTd/SZMJcMV10HhoJB5JjQSAPAkKgeVBrUhwmAhBCZ+3Akm7RTYYsiGLrSNNUhoUKUsXz9yBVOBDrC3/304ZcMQQQECxIFi6wYEG2aQ5hEDbsIAfyAvcLH/jvdPx/foKe+urne0/99C1KTPaAKLMmfFLyBIv8JN6GhOGOztryornRyGOWKXCJdxEEhECLoNewuHi23pAFkwbIlMzsvTqTR02QF8gVLiBYkCwchgRAtKMcwiBs2EEO5AUuj14JcfASjwbSgQIAABAASURBVPtAmMgzE+auztry/s21W4/ASk8IL16CQGkICIGWBmWzBIFMMXvfYcuUu/lX8ITJLT3rNB+hNiN3RveTuDFgjSzy1eGbBbrlm0yYyHMz9BQtZgUBIdBZKGnu5jPJnOhZpweWOmvLCgRkrDZFd2PtI8OAri/vxr6tQx9D9mxBQ8++Zak6uBmwdYkbA9bIyhrNsZfVzCsgBDqjVQAEtAmr7Z7lVax97Kwt72JniBWkRUxecCAyEFrgyGKyirZ+hgyDuNizJXwf5MJh8gtpwfWtSSbJ5UXoY8j+nuXD0LNey3JLeTkSBLIQEALNQmjGroOw4GDlwYHIQGiB6/SsQBCdjTNkGMTFni3hFciFw+QX0oITa3LGKtqUZFcIdEoKUrIhCAgC9SMgBFo/5pLi9CIgOZsxBIRAZ6zAJbuCgCBQHgJCoOVhKZIEAUFgxhAQAp2xApfsNhcB0WzyEBACnbwyE40FAUGgIQgIgTakIEQNQUAQmDwEhEAnr8xEY0EgjoD4jAUBIdCxwC6JCgKCwDQgIAQ6DaUoeRAEBIGxICAEOhbYJVFBoEkIiC55ERACzYucxBMEBIGZR0AIdOargAAgCAgCeREQAs2LnMQTBAQBIDDTTgh0potfMi8ICAJFEBACLYKexBUEBIGZRkAIdKaLXzIvCIwXgUlPXQg0VII7Vj+2OHfoo6vtdx8/jD3OQ5flsMkIrB7dtf3Q8RUpuyYX0vTpJgTaL9Pt7z5+xO/639GkPkSa7sQe52iU/SCyaygCKKN2t31WER2lcNlxmTZUZVFrShAQAuWChNWiNN3Bh7ENjbJ9+/37YxfEoxEI7Lj9I3tRRqzMPLvIhjJF2UY85WR6EGhAToRAUQiaVmnUT9Fhkl8jEfCVN7rs2CIl7t43UnlRauIR8CY+BwUzAAuGRcSsF/YLbXp36EQOm4XAvix1dlzatpQVRq4LAnkQmHkCzQOaxBEEBIFJR6Ac/YVAy8FRpAgCgsAMIiAEOoOFLlkWBASBchAQAi0HR5EiCAgCs4PAIKdCoAMo5EAQEAQEATcEhEDd8JLQgoAgIAgMEBACHUAhB4KAICAIuCGQh0DdUpDQgoAgIAhMKQJCoFNasJItQUAQqB4BIdDqMZYUBAFBYEoRqJ1ApxRHyZYgIAjMIAJCoDNY6JJlQUAQKAcBIdBycBQpgoAgMIMITBaBzmABSZYFAUGguQgIgTa3bEQzQUAQaDgCQqANLyBRTxAQBJqLwEQRKD7yhs9r4DMN7UPHT8wdOn4qyXGYYwjTf1lyH/1m7qAjdIXOSXkJ/BAG3/4BBs3MSU+r7avHl6An9A10T9rjG1Rzhz66ivz3Yk74/2r/o3b9eonyrDpvqAuczn5gbd0eWM/KkGbZ0GUu1C5RF6zTQ/zb78/MD+QjHchGfbOWX0HAxhOoqSTvPn64fej+0/jIGyn9AOEzDUT7NNGeJMdhbkMYX3kPcsXS7E4AbOICqgBDZ5HQBTqx09ARukLnpLwEfgiDb/8AA453FgQEbJwTryACKjH0gV6qSw9DT+IyCnRP2itNd2hSH0L+Od45JoJj7Cby21NzfCMYfNSuXy9RniZvXHfLhBxlbtLL2x667WcY79LbA/RiDE4PlzvqApfrsVQMuE322sP9pzn+M4xbZvvW3O6RDmSjvnF+zoJQx9G+G0ugpkBuv/8YCANgEekin9XYB7C5gMYGNAoXhYzChi5cofaxy7stgICAzRzf7au2dNKURLpIH5UY+nC4BXZ5tnluOLexewD4oEHlEVJ3HNRR5F/zjYDTnmcX3/hGApziF9x8kBaICGXeS69Z7UF3fZBkcvkrfRvqfiTHTJzwQ5vstYdC+VkAR0BW3XWneQTKwMKaQUXhBnVbBPTiJ/MB0HNsNTiIKxSUK/5+Llxzd2ZByZWML+TZNNEeY+lw15EYuzwyXOOgMc8xcSNdpO8aPyP8AhoUiLQM4slIK/flOa4/XEdP2+SfcVrNnRCXadPbA+pDJg5aDXoXAXGiLTIuyTcevpBjm1dER+sk0UYRKBoME83ZvjWTAz/rKPOarYY5kAC1dlnHcg3IlZ+J4ATfCB7gqAvsqtz2ATuQdZWJoHLaEkdBPRaYeB4EeRDjWFBWadExXIF6g/rDQm0bf66P2vXbw+k62wPIkPPltl26tJgdQe8Gdm0eeqiAOCPJg0TrqjONIdA53NF5zJKRsK2UHLTYpon29MmtmKCE2KaydOdO8aV97Ora5pEfQzoVpMjkfMxUTqL5CsQnigR5tIFjA0gUlhOGK0y9SdQ2zVOdS7uS5m9uVL32sJAWpmx/5As3R9TdsmVDHmPH7aFQVx1irFxdX2JtBIGiYWq2CK2QmYBAqIDhylK3yoZ0ePy4tHSZvObYWmdyLntIxVJFvbvdbZ8m1sMyQqnBUJ7tLcvJXbam0+TwQ3tQREcdopQZdJ7r7sMg8DKF9mXVduPtp1f5buwEisoyvoZZPr5obFwB+U5L460sPHA/B9IrmkUmrTZbgJpoT1FRBeMvtC/NHSkowy068s6z6FyeDxeYxNzwtqnDtgk3pT0oJvCKSNQWimLhtm07W0yAXeyxEqjpanJDt1O1+aEaQ559qEB6pkH2z/Ps2t02z67W0+3K1E/pwUREZtiCAYLxR9J0Z35R6oxu0d4LR95p1ZgxRNAkYwIkyvWnNszz4xyNyXo/ZIt5NKb72dgIFHc3dDXdVe7FAEik6C6C0+oWTXSQesf3EakzVPePrRXVVUw2lNfyXCet7kMeFOn38PEtOCbOkyJ6KHd2+AZlGmYOAeYGR7QvR1RE2TB6s/7EztP+zSZffEzIJ9E6Ajm6vNjaJ8PliHz7RccfOZ+dtQNLF48sW3XfDVEVIGtgrRXdTZwu2gIcjntYq/ztQeljMAzsASwnZFp+kEdcG5HKump5KyOul3rJK1WapbAdqx9bZBBydMfUGVSMTqtzxeba8t7OPcuHjbv3wImLa8vH+scrqLhey7vBVCCiDUu1CgXLaaltoEKwlXJTZ215sXPvgRXkYXPt1iN8fALHcCava8t8v6GDjJs7mXLDhEXlkkE0aE7wDpc4CGv04xtaZ215l9G7X0YX7n3XqU3kC+fIJ+cX+e41cMS0cpWWJTDicjydJ99b2nMdbdFNKLctv9FHaA9seeLmOzpg/Op6uD1cvGd5FemiLcDhmOvRSoeJvEB74DFRlUe3uLbZPpn5QR5NvWIOQN779WddET1EfPNgbliqy/pEdsZCoP1Fty7WxAbAQkVAxaAjBzNnNQGiqUCtziKARWarciAblu1mqWl1Hxf2IiqErZWCvKPywJrj9JwsOF95x4itK46XvSEcWx7ZAcMh1BnoBf240Z4IX0k7Rr457Aoat2kAaQEDf62s5AbBrfecXyw3Y4we5DgL7PJsbHHr95g6aml1BonkaA89ouGbEOpE9e2BJ/F4LDjQt4J9v30vL9rmB3lGWNSfDuNg6h3fnOFfgX6pIr3UKxVdQNedydBlQuKkIRq2MHOpxGQLIjXWThXWKDc+th5crOkNEA0KPm9hw5pjTJb6d98RsEQuLbT99mrEJ+Vku9/GpIf1DU5z17HDVg70ShE50hs3OzQA08VPD+k0GZMuJnoFNz+2OjFGuS96xf5MsfXDN4GlTbaw7WP1QiL9HO1hCeTRk+D4H2kPDl179GK45+iYWmZwYMd1uUecmaGbF6B2AmXA0DjtkICVtra8Py/RhBMx1g6s0ZLHR/ukZGu1bDCR781LNOH8ABOQcAbpRKKQplUC4VP6bwc3EpcuLDf+g7Ci0yXaXwEBMT43cR15KBwL5yAoEG3Yv9Ax4wCrk29+eMjB+mYxlKaxOkH+uXVT2v7mW3p72NxLDu3Bv6Tt2y5Z/Dg/wA512SJ0I4PUSqCwPhkFO7JhcEEQHL68DXffFioNOXV/RyoAUhoZYHDRkCeIfOBTwoEhHbYALUXN9wk/NbhLI9FEB3NbQikaAB80qg7GfDGWyHuc5yaohHRQD4tanSzW9Iw2c1idHNds0IMPGtAeLC1RnpDEDZZ1Lr5V0b6La+UsoVYCVaSsupDEd8XSyZP6PyZRtnJKWZrRbwBW1gt32/eDHPpalLqDBai4G2klVNMKpf3YKmOLLMAmLZTxR7e9bPI0gkN/ZeOFxo+1sYwVFqlblVtIneBwg3qTZIV7Rtz40ssiSI33rO9DVbYHr6VQ5lYTdF3ft2zDrHjqps50tm2WICc1gdoucBnWkxYqL1m+UUm3tFXFyqu5aZg8Y5c3fhBPEaHiUeaP77aldNtHJLTZ6kAXm0awgHG3JFHbu23IsCGW9Ytep9zuXJJCJfrN4VHhrn9aE7mMvw9rYKxOJrPCk1loD5a6bFS9LMdY91pZtTke3kEdGcbF6dzT3VViQ8YpUkMD10agutu1A57JxhBcxYBhYomTKNqV38cysraNWu62qJCKrMbTtKd57ItiP6VVov9wQE10eJIagK+8Y7r3qLDNzYESfuvcg7i5U9J4PORbtwcuU0NwiFShw01BEUXGnlOSWyi0LpTbd9XGRIrelXjXR6Ck9trkwOWxNxt5o8LwBIwV4STJwJrBJP9hP63oWF1k0/E6yE+mFZpKlErblNG6TdedmvVbyKsOl9/dPEu8VHaj15btoV+medV3iqe1Qv3JjON1tU09SZRTZ/tOVKBkz9oIlPW2Af1kHXdb1sVsm62LuRcI+55nkx9qeZ5VpTQKFf2DFWq1VlLHXk6NLiUnn0k0RW46LH+SNmN1Yny5ohvgUjYY6gzeKoSbdR3Ooy7WV2fegLUl+cfzp87U2b7j6Zfv45UvMkEiJieIMrtPmqjw2BK5/EA4RCddogzC+mpxcJx+sD6GCmOFIRpkRG2rdzoS+S11KhJvSk8U0dmyrc4hqDJvVsRzBr7yHqzTsY6Z7ZSxyfcOXaWt6ibrMDFbLQSKu6gVIi2yem6YyvwpypWmUjqbQLWqnWwwlkU5flopC4uINuoYn6Yc+pcdRRPt4cm23D2UUfoUGkMcJbima8AmT1Ke79feHvLo6RKnFgK1VWgcjbPSQvU0nnCxzX6Z4TInx4aHIJhAM60KRZTrZkOT+lP6NrxYpGz1W5f8TKzLTrMJ8i5suzR19adRBNqEQrbVQRNlW2y+GkuFUdz9JPmVgoDSdEd/vW8p8mZaSG/IbKogEALNX5yZY0Veb1A+fwoSMwcC5UfhG1KtHyorPwcisSoEhEDzI5vZTeZucbaVmj99iZkTASbEhxTeueoQn+McmfSxS4fsZgXNnKnPEjAt12eeQLvKy54MSihtblCZ45tMoGMZ67IaXkjIU5aXJjWW/GTp5XDdPIaJZ+s31249ookOOsSdV106JSTKiFktleNwM7B5deSxu83D+rLMpGJLazJjlBBA0RJl/zKtzUQRmmxkU5m//nrO7OGF4RlRq/Ha+PrRMnWvWFbsMUzzQIBW94XSzTpkElX271VNk1bHsisJAAALl0lEQVTT93rSki/mPz3PsRfDoRfb6+2q/bedXe96nt3jniWqqyweX1QJkzK+3fInq8X2JWaHul3fKs3hm5rteG379vtrL6Oi+KC73kl5DLNz74EVciJRvbvdnTtFvbXNuVQbw9rgXHpGI6kzpOiuDt5mNoWTQdG82p959kGLhuQCyBChNNXaOHvWWrZVpRXF1q95Wmd24Ylovm7CYbK3wnD4puawaNxKPue9MZvSeuRqCEOilF0/tzIEEm0XXCNqkx5be2vLism/Ae7Aknl/hJDnVjXgo/oI1O7b2At1duOt332Z0L21fSJHKb3KONey9W4ItC8rMSbZlJdGWDRqfBmzgPWVpdu4rhvLyolEaR/fHCMk6qK7Vjp2U47H17vrbA/x9MUnC4HaCNSuwhBp5dXymjRDNkrflgUQrne2bcYqe9+Cyxwb1UR76moEfte3eu4+yaJGPi3LKPOlzJA1cY4tqx6Jkv0MM9efvF88Vb6K1akkzOpqD0lpi182Al52kHJCXGx1rJ6DBeHg3Y3lpJoupf8hr/QAW1dOEjeurdOtIyYiqzz5qmVFbFuS3Y/6JJ1pfUKy9ihZb4/sLCpNd07lbDSXs24RxpDtSRRYHDq+Qo4/HjZAGWSmg/bAlu7EDZs4wjGxwWsjUENCloP1mtThKhsoCFqzZWhTahwOFT05qC3hkN5dxSOBA6W4S+0rL13PQUAcqDN96xknEdf3z7SqEUl1VfHZaAhqmAMGriSqiI7mIrnwcqBROCh9rMr2MCppuTYaAW/05XKv8kyvnYXDky9VNVA8lqd7L9e1ydyGWeqSEhKNjRtPynhiNBJPkFXzSCCTp5kVZsyiKSafadIjrWFNdJisfmVMpKQkxHmCRR24lFCVeaNcGQe3sescJOfwbsxylk+lIAZyBtbYpwQR7xQEaiVQzPTaEg6PhprlImasMkV5V2+QJ6eP7+HYRVU0kmyIf0r7loRDhLShA5X1Y6LpkaeOvd8zJYnMlyH3bxhWViinsc982ZL14ONSNowptrvtZ9iifjBwnMbZuhs3cGASPeiQKSY5clpo31/OZPk6Rdyw5k6V2R5gNQNb1aWHgTX2OAeZOuR7poN6defeb5HDnV3v5omR0yhoKvLjBo4uNAjMQcy6WbaREcHtpkCGRDk/hbu/qORMNGdxoyHbn1ZW2DNxWN8UOOl97e6cE3FwnNgGYpg7dPwU8Zhi7CLRAjfuUskjIY2YlyFRRXfHLqR7MIkqp7L1Wp5VmfSSTGsPvasu/7hRkdIPcJwFduFtAWRa9w0rrMAkHXt1K2u6R46VEgWNxoVG5qovLL52t30aXWiXuJ72rScG+h/9ypwQGKSP2dtu+yx0G/hZHgADEDAqOUeZZ2e1KSJ82dFqnBTEgfBWgk0gvZsJ7mHoBf2Ml+0f39zQmHGjZOIe9cG3eetlZ7ZpW4Qzb6TXyuFppZ6lSJwvC/FkrFBFd9mE7YeZD9pDHpIzN95D95+m5BtVPwkiLk+XmyjN6q92AgXQplK6rbnj8qY93Mi+AyIF8YxqqKhYsDjRHWEiQJd9+C4LNVKdZoKHZZkaYOgCGgE3fgdLwgiYh27QEbqiYhvfpD9ujMgzhz0BDLgBWS2/Cona2Ox9tTPkNfrQ+aYAcXxjgH4gUnb7R5EI8ot8883tLBfunRx9nt3oze6x29EyclzlGfMVLiurse6eeJBo23a8n3o9HXWmF9fun+vbHia5h23aA9rK3KGPrraZOH3lPUg8qWmRyj6LMDMfZCwECtRdvkWN8IEzFYfoqGmoh46fm+NuX9gxyWhUrL7F6UScvTR4lvqeZVcyJFht5GSp9FLj/wXoiooN3dtcyedCeWK/c0wyz3ADPsph97Fz3sys8pGDVu8jCITjpsBWeL7lM0ykTPIPQG/W/2w0P/efZj+N/CLfnF42cXKg3qZzvfilF7fYf+8G5ERy+/gmYk2iVbYHtBVtJk510lh5MWBmPPbYCBQN1DRsIvuub7yw5jXRnrCLB3HxUWc6eNbXJUoorLulEoo8ONS7h/LjQDADIYMDlnUQwyYDD4cDWOGI7xAlKegCyxiUkaX1kySH+CYy8pHMxEhlefINqF83bCfYiG8it2F4gix+DWwPRdqlRY6nI8jYCBTwmYat1QofN6Cw+uTJDYX1yb3lsFRyp5UVkYnroLGMswKOuI74kDMiSG2XtOVndytTiOsG3/RhldvXVx5rxHCFjU5oDyx/L4e1l8+Bq9i0ImvrmWb4N1YCBe5stZ0Yf6UphzyRHzww0LdULJenmFil/4H0QH5lCIYcyCtDVm4ZPDyCupI7fkkR85CcrzzrIaE88kvKWkiMOnPR61hNIoUizeSh14Rcb1UapzGmclRHw0S3na2LcgSyFJbVWVver3kyis/q3jb4hnQTSK/MhCGPx0RvZpm1W0fmdXR47Rwn3oTN1Fcia1Ikm+9ncaBgg3yv5S2R40QrlfM7aQwArsPliJtuKV5TsodKg4KrkXQ2YFWxVbNCFVUWs9pAq1sY47pIhyt/ZxFYcpqlbxgT7bQ6i4rIYUa6kBrrIO3NtVszH2golEqOyLihoP7YRGW8ztqEC4fBmGjd7cHcqPjGX1V7COdvWo4bQ6AGUCYykA4aDVe66hqpsTqZaNaWKx/nYYI+AdKp+MZgiKZTR+XnMsInMfrkYT+hYgrY+m+DFN3FuC2BtDNiZQ2VbFyo6HO6hkQtehm+3cu349lkrOtqD7B4N3PeqCzxjZdTPMcT59MsAu3Dh0aDRkpsvZVIpPgezn1cUW5gUqvM6uxnIboLGkLLu6FPpBvRAHnP1BkQWWdteRGY5ZWSJx7IA+kifY5fFpFu9Ilz0ayNZNxY9siNhytGj9UpOlKlRQWC43o6aqH9RtHxRJQt2kPphgUbEkF7gMVLeX8oJ77hjYrOujeuFzFKX9trjSTQQHkmuhOm4jDxoHuRg0wNaaKRszWzyPJWClWUQLGce6SNBsfEs4sb3S3s0PCcyMdgwJWVieOmztqBJRBZTnVKiYb0O0zg0Kd3c1BOC8JZiXWDA98sWc4uW+LkeGbDcAXKl0822EU26GPkRXzLP0G9MnmIi15nXPaWReADIi3SHohOAi9uD1dAb9TJuNruPsAZeCfENENl0D3h2sR7NZpAA3RRyJvcvQCZdtaWFVfKm/iOdjOslWGHyoFr5s66trwLlQSNvKxKHOhUdM96nWC3wvlZRGWGztB9OD84N9daxIS5rAwG9ywfBnEU1aHM+NCnd3M4sMR5UtCZmBSh/7BDPnEd+eaw5sbGWFg9ZpqkM8qXZS1CbpAWyh/6JIWvwo/1X0G9HKSv/ZtZpyXgUnZ6Lu0BhgewBh6M9S52+4FXFe0BeCOdAAOUB2OwaNIrGwRqhsCJINBhqFApcUfDXW/YobBwDZVsOF5jz7kLBJ2h+3B+cG6uHVke3yLyHMBBZyaVE9B/2CGfuF5qI2YMITdIaxzlj3o5SP/ed50qNX8jygDpAs8g7fB+kw0PXKsLD6QTpI/yqAuDEfBUemkiCbRSRES4ICAICAKWCAiBWgIlwQQBQWBqECgtI0KgpUEpggQBQWDWEBACnbUSl/wKAoJAaQgIgZYGpQgSBASBWUAgnEch0DAaciwICAKCgAMCQqAOYElQQUAQEATCCAiBhtGQY0FAEBAEHBBwJlAH2RJUEBAEBIGpRkAIdKqLVzInCAgCVSIgBFoluiJbEBAEphqBegl0qqGUzAkCgsCsISAEOmslLvkVBASB0hAQAi0NShEkCAgCs4bABBHorBWN5FcQEASajoAQaNNLSPQTBASBxiIgBNrYohHFBAFBoOkIzAqBNr0cRD9BQBCYQASEQCew0ERlQUAQaAYCQqDNKAfRQhAQBCYQASFQi0KTIIKAICAIJCEgBJqEivgJAoKAIGCBgBCoBUgSRBAQBASBJASEQJNQKdNPZAkCgsDUIvD/AQAA//9vzHZZAAAABklEQVQDAFNb2j0sjGv3AAAAAElFTkSuQmCC;" vertex="1" parent="1">
          <mxGeometry x="140" y="280" width="66.73" height="57" as="geometry" />
        </mxCell>
        <mxCell id="hI0YtmNNRfd8naDbK4rW-7" value="App &#xa;avec Syslogd (server)" style="shape=image;verticalLabelPosition=bottom;labelBackgroundColor=default;verticalAlign=top;aspect=fixed;imageAspect=0;image=data:image/png,iVBORw0KGgoAAAANSUhEUgAAAVAAAAEfCAYAAAAX5p5gAAAQAElEQVR4Aex9e7AkV3nfd3p25+5GiLt6gBAI3auIgDGPveKRQOJiVyaxMY69K9tVgb2idNf5I4mjRZckhUNSLq1MqkhwXKx05SRVsdmVYUWlKol2ocrgKrBWEEIwDtrlYR6RzF4hkAVI2ssKtHd2p0++35npud3T3dPn9Gt6Zr6pPtPdp8/5znd+55xff+fR3R7JTxAQBAQBQSAXAkKguWCTSIKAICAIEAmBSi0QBAQBQSAnAoUINGeaEk0QEAQEgalAQAh0KopRMiEICALjQEAIdByoS5qCgCAwFQiMj0CnAj7JhCAgCMwyAkKgs1z6kndBQBAohIAQaCH4JLIgIAjMMgITSqCzXGSSd0FAEGgKAkKgTSkJ0UMQEAQmDgEh0IkrMlFYEBAEmoLALBJoU7AXPQQBQWDCERACnfACFPUFAUFgfAgIgY4Pe0lZEBAEJhwBIVDHApTggoAgIAgECAiBBkjIXhAQBAQBRwSEQB0Bk+CCgCAgCAQICIEGSNSxlzQEAUFgqhAQAp2q4pTMCAKCQJ0ICIHWibakJQgIAlOFgBDoxBSnKCoICAJNQ0AItGklIvoIAoLAxCAgBDoxRSWKCgKCQNMQEAJtWolUo49IFQQEgQoQEAKtAFQRWQyB7avHl+YOHT81DldMc4k9awgIgc5aiU9AfluX/F2aaM843ATAIyo2CAEh0AYVRlNVEb0EAUEgGQEh0GRcxFcQEAQEgUwEhEAzIZIATUBAXX39eulu/oVPNiFvosPkIiAEOrllNxmal6Sl95JXLpTt1NUL15SknoiZUQSEQGe04CXbgoAgUBwBIdDiGIoEQUAQmFEEhEBntOAnI9vJWurnfkz+o18yLhzC1T8cV44FgTwICIHmQU3ijBeB7iXSzz5tXEQRV/9IZDkRBNwREAJ1x0xiCAKCgCBgEBACNTDI3xQiIFkSBCpHQAi0coglAUFAEJhWBIRAp7VkJV+CgCBQOQJCoJVDLAlMIgKisyBgg4AQqA1KEkYQEAQEgQQEhEATQBEvQUAQEARsEBACtUFJwggCLghI2JlBQAh0ZopaMioICAJlIyAEWjaiIk8QEARmBgEh0Jkp6unJqGrvJHXNy4wL58rVPxy3OceiySQhIAQ6SaUluvYQYAL1XnQjwfU8+v+u/v1oshME8iIgBJoXOYknCAgCM4+AEOjMVwEBYIoQkKzUjIAQaM2AV5Hc9tXjS3OHjp+aFuer1pFhnLrf/NxjZTv/8a8/NpyOnAsCLggIgbqg1dCwrUv+Lk20Z1ockd4dg3rzp9dTFS6WkHgIAvYICIHaYyUhBYGpRkAy546AEKg7ZhJDEBAEBAGDgBCogWH6/tTV16+X7uZf+OQwUqWnAb3HmM5w/uRcEBiFgBDoKHQm+FrZ31CHPJXwHXX4l+3Gmc6kFXn79vv3sztGq0d3jVX3GU1cCHRGC16yPQUIgDSVPkZK39buts/uuP0je6cgVxOVBW+itBVlBQFBYIBA+9IclnvN9z3mfeU9uP3dx4+INdpHpIadEGgNII87CdfvpaeFz8pHWjxX/6akk6XHOK8ba5Mtz2EdlKY72Bo9jbXBw9eaez65mgmBTm7Z2WvevUT62aeNi0Ry9Y9ETjhxlZcWPkF0xCstnqt/ROgEnXDXna3NYyM0XlBdenj7oeMrI8LIpRIQEAItAUQRIQjUicB2v32Y01tgN3JTREdNl35kKLlYBAEh0CLoSVxBoGYE0DVHNz2crDe3k7zrXxv2GhwjrJmlH/hM3cFYMyQEOlb4JXFBwA0Br0uYOKLI77pXk7riWmq9+q0EMo1cwwmPlQqJAojynRBo+ZiKREGgEgQwcaSJ9oSFq+ddSXDGr7WN1M+8hdRV15nTyJ+QaASOsk6EQMtCUuQIAhUj4FMrNinkvfTVsVS9616VSqJzhz66Goswwx5Fsy4EWhRBiS8I1IDAjtWPLWLBfDgpY2m2d4a9BsdpJKpJfYi78/sHAeWgEAJCoIXgk8iCQD0I6G43RnrqqpeOTDyNRJmIjxlCHhlbLtogIARqg5KEEQTGjIAmL9J9x2SR2vn8TK0MifI46VDAed31R60jHQoup4kIsKfHTjZBQBBoMAI9azH6kmm96yXWGns3vjE2O695MkrGQ60hTA0oBJoKjVwQBJqBQLfrx14S4l35YjflFpZi4TWpw7Qqb3GKAePgIQTqANakBlXtnaSueZlx4Ty4+ofjJh27yksLnyQ77JcWz9U/LLPJx0qrCIGi+05cpi46K+7uow4MxZnvP9U05C2ntgjkJ1DbFCTc+BFo7yTvRTcaF1HG1T8SOeHEVV5a+ATREa+0eK7+EaENPlE6QqD6eVflUtbUgbmdkbhK0x29IYKIt5xYIiAEagmUBBMExojAQjhtddmV4VO34+vi60Z9349MULkJnO3QQqCzXf6S+4YjgKePhlVUl+V/+TyeWoKLyNQki+sp329MBJpP2UmLhRc/zB06fqpq56tW7Pno7jc/91jZzn/8648Nl0HZaUDeONOpuqwC+cM4pp371IqzJQ9VpIW38VdXxh71nJfF9TbIxcMIgcYxKc2ndcnfpYn2VO2IoktcTAY2f3o9VeGM8NBfFWlAZigJcwi/KpwRvvVXdVkF8rdSzDjydGT63EwgZUTJuowXjySEiS3UTwgjXkMICIEOASKngkCTEdDbo5NAeXVVwy8cGZqoyit31uJNIoHOWhlJfgWB0hFImIhakNl4d5iFQN0xKxRDXX39eulu/oVPDitVehrQW9LJV3YJuA2XV+q5rxZTrxW4oJ7/glhs/1J0uCAWQDxiCAiBxiCp1sN7ySsXynbq6oVrhrUuOw3Ik3TylV0SbsPllXaulI4SaJElTOFEWttij3dyWqv4BAgmutqH7j/dPnRcZ7v7T8/xRCnitd99/LBZNTBDTzfNHIGG65AcCwJNR0ArOkXh30+eDp8VOh4eT9U84YmF9dgnTkwmpqZ3IzzikaY7feU92O62n2mDgJlQsRIlMdqUeAqBTklBSjYEAWcEyrJmExPWu0Go+DooyHRavxAqBJpY+PV46ud+TP6jXzIunKKrfzhu0rGrvLTwSbLDfmnxXP3DMpOOXeWlhU+SHfZLi+fqH5Y5m8d6tyI6Osdd/WmbqBICdanRZYftXiL97NPGRUS7+kciJ5y4yksLnyA64pUWz9U/IjThxFVeWvgE0RGvtHiu/hGhbida01kK/VBfQqelH+IpJeOuus68fMa7/rWU5vByEiyHMu552Y+Xoqvvd30eM52ez4oIgZZeBUWgIFAeAi3tRwjUSO48Z3Zl/AVkCZJsveLvEU8W9tzVC+TtuobUzstTHa57CAf3kleSiX/jGw3xQm6KfvOa1IemxRoVAk0pZfEWBJqAwIVtl04P66F/cm7YK9e5d+WLB2QJoswlZCiS2tY2xGuIGGTKluxQEHOqecIK1uikTzIJgZrirONP0hAEciBw5CCzpToTjqnLmon3u2GxpR8bMoV1imGAuZ1J8s9dPLIcu0EkBWyqnxBoU0tG9BIEAgQ0RUhGPfsUFf6VOAyQpYviYYCkT5CwFXo4K27TrwuBNr2ERD9BgOgEhX7+5nPxicfQdavDiq3PYR3Uue8Ne21cXFue+A/bCYEOF2szz0WrGUagc+8BEOhGGAJ97onwqdtxjdYnFPPPPUkgfRwPnKLYKxhpAn9CoBNYaKLyDCKgFUh0kHH91ONEeYmwRutTa5/0k48M9O4fbHS8jhBoHwzZCQKCQMUI6G06Rjj+D/7KPdW8pOuekomhn/qu2Yf/FOnDZCbHwr6TeSwW6GSWm5PWEnjyEcBstSJ6KJwTWKFOC+u7l4jqsj69FqHrDh3DOvPx+ubarbGbAftP5CYEOpHFJkrPIgJK+/FZ68e/RgRitAGke9EmVClhNFu6CV138rS/UkoCDREiBDrGglDtnb2nNq55WUQLV/9I5IQTV3lp4RNER7zS4rn6R4QmnLjKSwufIDrilRbP1T8itMDJhXvfdYqjn2Q32DA54599eHCeegCSrcn6xLgngdiHldHqvn4ehq9M7LkQ6DiLjgnUfKv7RTdGtXD1j8aOn7nKC4ePS0v3SYvn6p+eQu+Kq7y08D1p6f9p8Vz901OwvoKPvuHxR46wj11kQzfe/+tHI36xk5qsT0Oe66fjs+6kznS2ba7G9JpwDyHQCS9AUX96EcDLic2Lig8dP0tKP6CJ9iTlFi/z8F6wkHSp51eT9amfO0+USJ60oVt6ZVomjnqg9v6FQHs4yL8gMFYEQJawMvFWd1iaeBM8Xk6sNN3BiqWyI14C4l33KqLWNg6WstVgfWLCyH/sKwmWJ2Hccz8mwVK0m2hvIVCH4sOLD1C5bZ0/899r/9xj3W+6O//xrz82XCx55GTFGWc6qENMkmfZmc9m+Mp7kNjKJE13aqJESzOMCazO1qvfSuqKa8Pe8eOKrU99qUP+976RtNbT6MJ5OTht454mY/0/IdA+EDY7r6v3coXYY+uI9O6Y3M2fXk9VuOGEqkgDMiWdfOU3hBvqEHstsHPa8A7O1ivfQplWZyD14oXgqNR9QJx4ITjGYBOEb/CM+83T8LhmQt4GXkKgAyiyD3yloh/4yo4iIQSBwgjA2kRXvbX7FwmTjsSTWFZCO+W9NxTpae2btZ2wOEcQJwdVZ3SL9k6z5cmZNJsQqIHB7s/TtETyqwuBmUzHm9tJeBkxLE3v5W8mQ5o8xpnZVU9Cq+CyJUwKmbHNH62TPvtl8r/9BdNVT7E4jQZa0d2d1ubeaR3zNJkM/QmBhsBwPTQV/arrCBbCwF3zssHaTjQCcYLHqDoAy9K78Y0UkKX6Ge6e4/xFN5La+XzXKrkVPsX6NNYjj1mO2ne/9XmCw6QQFsPjaSKsN90SHj9SRA+x1XnTxXuWV2lKHtOM5zLuIwQaxyTVpz9utXX9sitp8EkDvDgWjis+ulnibjTdTcFhNA6wLM2NuAhZbtXI3lHKxBGsSViPWa4nxO4fxImxzs215ZmxOsPICIGG0XA8VnN/wzGGBK8LgZlOJ23iqKw32ROto6vutbwbQJyzMNaZVp+EQNOQyeuPu3/euBJPECiKQEr9w3gmLM+c4tc53klF+j3opnfWlhfRVb9w5J1n2X+mNyHQmS5+yfzUIZBkfXot0k8/Hs+qorsowYEo0S2HY7JU7BbZ7d9cu/XIrEwOxcFK9hECTcZFfGcZgUnNe8rEke5ejH8CRKv7OvcsH05yIEp0y+EmFYq69BYCrQtpSUcQqBIBdN1Tli3phJcae9Sd+O8RVQmnrWwhUFukbMPx3d42qIQTBEpDIKnr3heOZUj9w/5OnRHrsg9FwZ0QaEEAJbogEEVgDGcpXXdogqVL2IedJj01b4QP52scx0KgZaOe0o0qOxmRJwgYBEZ03XFdnfsedmG3Pu3Pp4czW/WxEKgbwljOMYihN386OJYDQWAsCIzousP6HH6CiGfYEYS0TAAAEABJREFUxfossaCEQB3AVETRdW+XUt50A6uA5CcIOCPgFmFE1x2CEqzPjc3WRZk8AjglOSHQkoAUMYJArQjgJj1iuCjJ+iRFR2bpOXWq4ScE6gCy1ipqgaZ14WUm3gFVCZoLgRFdd7x2Lsn67Hgd6b7nAjs9khBoOjbxK56OEmg8hPgIAtUjkNJ1DxLGus/hsU+xPgN0yt0LgTrgqTVFCDT12eIRXSuSnyBQBIGMrjusz/i6T1rHE0dFkpW4yQgIgSbjkujb0n6EQBEIFRb7mENFj3mKhyBQAAHUqRFdd0jW3/8WdhGniQ6T/CpBQAjUAdYL2y6djgW/8JOYl3gIApUgkEWez52PP/NO6ozVus9KFJ5+oUKgLmXce9P2RjhK6lpQmUgKwyTHRRHIGPeE+KQ3Lnm6u4pr4qpBQAjUEVdFFLVC015SK+OgJL+SEEDXPaM+YdlSwpj8SXnmvaQySBEjBJoCTJq3ryhCoOriiC8fouKT/ASBAgigDl1MeWCjLxbj8Ph2Uf802G14La8m6zNIcvb23uxluWCONUUIFMtFUIFJfoJAFQhkkCeSTJo4wrIleWM80KnWCYE64ttqeadiUdImkmQcNAaVeDggkDXu6bUopesuy5YcYC4S1CsSeRbj9u/q0YmkGRwHfcEOj95y7XZ639IOs8f5LNaHyvIM8swY9zRvmn/ykZgKnvZXYp7N9ZhozYRA8xVfxApVzz6VLgVjWOlXJ+7Ka67w6JNvv5zWl6+gT739+fQ7r7/M7HEOf5DqxGWqaQpbkCdUTuq642uZMnEEdOpxQqA5cNZEJyj0GzkOOkXd+Hfc2KYv/toVtOfadij3W4fwB6ki3JavHDkhgBtuhuUJeWld94teRxbNA6CanBBoDqBbCeOgeuOHyZIsGkNyxGb5wvL88N7LI0r96V9+n/7y+8/Q40+fj/gjnJBoBBK7E5CnzaQRFsyndd17a5Xt0puCUOPOghBojhLojYOqM5GoaeOgCISGgf0Euw+++bKB9iDNf/Iv/w39wQfupH/92++l37rjX9CnHvzs4DoOfve1+BdnjQDqiA15ap/oyf8XF6voLum6x2Gp2kcINCfCWunIOCgWMacuZ5rwbjysT3TPAdX58+fp7t//PXriB1sW97UvfAG97ea34PLAXXfl5SRW6ACO7AML8oQQjHtiyAjHW06dkZeFbKFR55EQaF60PYq92Xtau/H/cGFrzPPzf/FwhDxpxO+Gy6V6jYBn69KFZ7eORxyljHtueC21f0Q0uZSGQAn+UsNzgnjxyDIW1Ee+kUSjuvGYWc2ZVtOjwRr9wN3/2XTjh7vyTdd97PpZkqdOGfckrVZ6Q0pjz8lMKiAEWqDYtaLIbLzpxl/qUOJvSiaTEvPGnl/4iy/Tf/rwR+jhr3ydz2SzQsCBPP3HvhITyfXv7s69ByJ1MBZIPCpFQAi0ALwtz4t9IkGfeyJdIiYK0q829sp3zvPERV+761/xmv5R8u6m174q+YL4RhGwJc+USSNF9NDFe5blWfcoqjWe9ZLyejv5z4MAuk6oyOG4atSiesuJgrC8Jhx/5nuX6LnNnmX9sy++gt78htclqgX/8GTSH36zFycx8Cx7WpKngWj9NMUnjWh9s9WRcU8D0Hj/hEAL4s+2WWQyCZUdg/2pYifQCv3hBZ/+49cuDrL0vjv+Gf3Wb75rQKQgTpzDPwj0/v/7E0K84Fz2fQQcyNP/3jeSyHNDt2g/yXpPasJPCLRgKfTf9r0eFpPwRcStyxNqhX7g9AWzaD7ICCxNEObHP/JfCXucB9ewTlSszwCN0N6RPDGmHordO+RJo/4EZu9c/seKQE4CHavOzUtc0dRbocS/X3qQB96e6PBR+vYQX0c4sT5DGKHXUQJ5aqKDMmkUwrUBh0KgJRRCx+tgMinyhqZptEJBir/0J+fpbX/yY8JjnCDLwOEc/riOcCXAOh0iQJ4OvQ502xMtT0V39Xs704HLlORCCLSMgsR4lCKQKAW/zLHQCV4X+tknLtItX5gjkGXgcA7/IP+yZwTKIk+t7pMnjRjPBm7jINAGwlBcJWcrFOtC0cCKJy0SmogAbpBlWJ4gz3sPrDQxi6ITkRBoWbUgzQr9UWR+KZqaQwOLRizvTD/zBPl//Wh5AkUSEcgTN0hLLFK77UKelgiOL5gQaInYJ1mh+qnHSac9nYS00diwr9mBOPU3P0t4wsV8kGxMetSc7WqTQ48Ck0WW5ImXzwh5VlskVUufOAKtGpBC8tkK5ZnS2NMh+skRFh4aGxpeoYTtI4eJE+O0QUz/B38VHMo+DwIoQ4ceBciT1k9T4oSRWJ55SmAscYRAS4YdM6WK6KGwWDSSkYvr0fDQAMORyjxm69J//OvUPfOnxuIME2eQjLGUn/txcCp7FwQYX0IZWsbBi0FAnknlQEKelig2I5gQaAXl4LcowQp9ZHRX3qEBks2PGzXGNtFN737jswSCTIvmze2k9/78y+lTv/6StCDin4QAbnqOXXaQJ4ZNkshTkX5PRyaMkpBurN9sEWhNxWCeFFF0Vyy5x78W84p4oDFGPBxOuDGjew5Lc0CaTz6S9CjgQGhAnE//u1+m9+9/g/nWkbwEeQDP6AO+QblYnRCmn/qu6QHgeNjx0M/BzbVbI0vhhsPIefMQEAKtqEw69ywfJop+9gNWR/dbnydMHPg8Ow9rJDbBlEWiIMpnnyZDljx77j/6JTKE+bXPmMYJSxPp0Ijf4pWXGYszIM6dc1svTP6DN8/RC3ZItUiFj/EnlBHGrlMDRS9gvBNljrKJXjFnG572b8bQjzmTv4lCQFpKhcWlW3qFxUeeUOJzM3Ggn2Dr8JE/J/8bn6PuVz/Tc0yu+uyXDSGCGMMO45fGgSiZNNEN1GxhmvHVzecgNtP9o9ddT0dvfRN96/A+Y3GGiTOIDL8//vmt7x8F/rJnBPJYnc+dJ0qbLCJ1Rrdor3zLiLGd0E0I1Lrg3AOiK6+JVsn217lA/vlnjNNPf79HtLA22dmKGA73czdeTf/hV19Djx7+FfrjlZ+jA3/7bw4HiZ3j+0fvW9oR859ZjxxWJ7BCLwM3upQewclOa3Mv6gjCiptMBIRAKy430zXjmdVYMm0LgmJCjcXL8ED3PLA0z/3eb9Bn7vgFWv37ryF85C0jauTy77z+MnrLtdsjfjN3AuLMaXWansRTjydDxuPjnbVleSVdMjoT5SsEWkNxdbZtshUaHQ81ydqSaAqRgixhYWIG/eP/dK+xMtE9DyxNdMdNOjn/HnjrDsIXOXNGn9xoYeJ0GOtEhjOsTjPe2RsfR2hxk46AEGgdJXjk4Dl01zip2Hjo4ouuoqO/ude4977ttZTm0A0HScKhO755zwEzlgkL8/08g/6LP/tiZyuT9Rm5gYCPvolma1IpsDgdidNMCGL8OsXqxNrgTquzKOOdI6vcxF0UAq2ryPCUUov2ElGERM8+/RP6oy88Qlc9bwe9962vSHX/+O8s0t996eVUBVGyTqkbPuHxyZunnEQDi9Nxdh2gae1TltWpSL9nc215L3EdQBxx04OAEGiNZYkJA8y6cpIREv1fj/6I9h/9Iv3v7/KMLV8ctZ0/f57gRoUp+xpIdCpn5gPixEMMjhYnMPbPPUn+t7+Q+pACrE6v5S1tyvpOwDWVTgi05mJNI1HM1IJEP/GNH8Y0SvIAiQYfeku6Xrbfnmvb9MCbN8sWOx55BYlz0F1/8pE0/TdU3+q8cOSdZ9MCif/kIyAEOoYyHEWiBz/6f+iDn/mWlVaXOpvGGq2LSDF88Mm3Xz65Y6IY30Q3PafFCeLEgvgRS5NIrE6rqjs1gYRAx1SUaSQKdT74Z9+m/R/+Am1cxFm2q5NIYYlO1JhoYG2COHN004F+mDjx4AL8Etw6aXULxjrF6kxAZ0q9hEDHWLAgUYyREcWXOGFc9G994NNW46LU/4WJdGCV9q+VuQvGRBu7xClMmjmtTeBlSZwbbHbe1VlbXuzce+AE4ombHQSEQMdc1rBW+kucTg6rgnHRX/0vp+if/48zZGuNQgaIFC4YJ62CTGGJnvrly6gRLx8BYcIV7KIDOzhMDumzX+69W2DUU2Ba3YelSbKuE6jNphMCbUK5Hzl4ji2Y/bBkktT5b19+jGCN/tEX3ecjQKRwVZAp1ol+eO/lVPtjnyBLuDBhFrA0gTle6oLlSF28j4Anh3Dzgn+iY+LknsMNbHGuyNKkRIRmxlMItEFFDUsGb+ZhldbZRTY06N/++FfN2KjNcqdI5P4JiBQOZAoHyxSufzlhZ+eFxz4rm1wCUcKBLOEwlgmyhMs5phnOFaxNMzH06JdSlyMNwoeIEz2Hgb8czCwCQqANK3o8qcLdwiVW6yS72IaxUXTrMcmUl0gDoSBTOJBp4ECogQvC2ezRpf/mb1yWzxoFQQYOJAkHooQDUcKBLOFslMkIE4xtBtbmiImhniQhzh4O8h9DQAg0BkkDPPpd+jRrFBqGidR27SjiZTkQauACUg3vA3JN2kP2v3r1doI1aiaYAlLEHqQYdiDHwIEgAweShIOwEp0hTbyD1WZss5dub3Ko1bkCXXWxOHugyH8UASHQKB6NOhtYo4ruYsU22MU2ECnWjr7h9/+MMEb63fOXYmHK9AjIddT+dc/bpE//g230vtc/j3apC2Te3A5SDDuq9mcescSTQt/7BsHSxNpNvNAYQyGjUsY6Tk10kMekd2FIhfhmNiq8XJttBIRAm17+3IDRkHnSYom4K5mmLp6pxxjpTf/+k2bWHmTqMnOfJreI/+rLffrzX7+S3vemq2nX1kvvi4gcGTdiZeIRS54Myuye9yRuaEV3M8Y3YB2neQVhz1/+BYGRCAiBjoSnORfRhURXEo18FJFCY8zag0xvPPwJwlgpyLRqyxTpJrn57URVEKmZNYeF2e+Wu1iZfT03DI5a3QJr8+I9y6vAuH9NdoKAFQJCoFYwNScQGnlApLCaWLPErj37mw1dfJApLFN087GmFIRadALKCHf4C4j0W++4kv7wjV16zbXPHxk7fNFYln2yxIy5IUvMmsPCfOrxkR/OC8vhY0Oapove6mDh+wpjKYvfGRjZ8iEgBJoPt7HHApHCauIZ+0UQAiU8zURDP3TzA+sUM/lX/9tPGAsVpIrn70GqcEPRSj/9lVe+wIyRfvLXrqV3vOpK072PkCRblSBKzRM+hiwf+wqZ7z8xWVp2ycM6r5sbTd/SZMJcMV10HhoJB5JjQSAPAkKgeVBrUhwmAhBCZ+3Akm7RTYYsiGLrSNNUhoUKUsXz9yBVOBDrC3/304ZcMQQQECxIFi6wYEG2aQ5hEDbsIAfyAvcLH/jvdPx/foKe+urne0/99C1KTPaAKLMmfFLyBIv8JN6GhOGOztryornRyGOWKXCJdxEEhECLoNewuHi23pAFkwbIlMzsvTqTR02QF8gVLiBYkCwchgRAtKMcwiBs2EEO5AUuj14JcfASjwbSgQIAABAASURBVPtAmMgzE+auztry/s21W4/ASk8IL16CQGkICIGWBmWzBIFMMXvfYcuUu/lX8ITJLT3rNB+hNiN3RveTuDFgjSzy1eGbBbrlm0yYyHMz9BQtZgUBIdBZKGnu5jPJnOhZpweWOmvLCgRkrDZFd2PtI8OAri/vxr6tQx9D9mxBQ8++Zak6uBmwdYkbA9bIyhrNsZfVzCsgBDqjVQAEtAmr7Z7lVax97Kwt72JniBWkRUxecCAyEFrgyGKyirZ+hgyDuNizJXwf5MJh8gtpwfWtSSbJ5UXoY8j+nuXD0LNey3JLeTkSBLIQEALNQmjGroOw4GDlwYHIQGiB6/SsQBCdjTNkGMTFni3hFciFw+QX0oITa3LGKtqUZFcIdEoKUrIhCAgC9SMgBFo/5pLi9CIgOZsxBIRAZ6zAJbuCgCBQHgJCoOVhKZIEAUFgxhAQAp2xApfsNhcB0WzyEBACnbwyE40FAUGgIQgIgTakIEQNQUAQmDwEhEAnr8xEY0EgjoD4jAUBIdCxwC6JCgKCwDQgIAQ6DaUoeRAEBIGxICAEOhbYJVFBoEkIiC55ERACzYucxBMEBIGZR0AIdOargAAgCAgCeREQAs2LnMQTBAQBIDDTTgh0potfMi8ICAJFEBACLYKexBUEBIGZRkAIdKaLXzIvCIwXgUlPXQg0VII7Vj+2OHfoo6vtdx8/jD3OQ5flsMkIrB7dtf3Q8RUpuyYX0vTpJgTaL9Pt7z5+xO/639GkPkSa7sQe52iU/SCyaygCKKN2t31WER2lcNlxmTZUZVFrShAQAuWChNWiNN3Bh7ENjbJ9+/37YxfEoxEI7Lj9I3tRRqzMPLvIhjJF2UY85WR6EGhAToRAUQiaVmnUT9Fhkl8jEfCVN7rs2CIl7t43UnlRauIR8CY+BwUzAAuGRcSsF/YLbXp36EQOm4XAvix1dlzatpQVRq4LAnkQmHkCzQOaxBEEBIFJR6Ac/YVAy8FRpAgCgsAMIiAEOoOFLlkWBASBchAQAi0HR5EiCAgCs4PAIKdCoAMo5EAQEAQEATcEhEDd8JLQgoAgIAgMEBACHUAhB4KAICAIuCGQh0DdUpDQgoAgIAhMKQJCoFNasJItQUAQqB4BIdDqMZYUBAFBYEoRqJ1ApxRHyZYgIAjMIAJCoDNY6JJlQUAQKAcBIdBycBQpgoAgMIMITBaBzmABSZYFAUGguQgIgTa3bEQzQUAQaDgCQqANLyBRTxAQBJqLwEQRKD7yhs9r4DMN7UPHT8wdOn4qyXGYYwjTf1lyH/1m7qAjdIXOSXkJ/BAG3/4BBs3MSU+r7avHl6An9A10T9rjG1Rzhz66ivz3Yk74/2r/o3b9eonyrDpvqAuczn5gbd0eWM/KkGbZ0GUu1C5RF6zTQ/zb78/MD+QjHchGfbOWX0HAxhOoqSTvPn64fej+0/jIGyn9AOEzDUT7NNGeJMdhbkMYX3kPcsXS7E4AbOICqgBDZ5HQBTqx09ARukLnpLwEfgiDb/8AA453FgQEbJwTryACKjH0gV6qSw9DT+IyCnRP2itNd2hSH0L+Od45JoJj7Cby21NzfCMYfNSuXy9RniZvXHfLhBxlbtLL2x667WcY79LbA/RiDE4PlzvqApfrsVQMuE322sP9pzn+M4xbZvvW3O6RDmSjvnF+zoJQx9G+G0ugpkBuv/8YCANgEekin9XYB7C5gMYGNAoXhYzChi5cofaxy7stgICAzRzf7au2dNKURLpIH5UY+nC4BXZ5tnluOLexewD4oEHlEVJ3HNRR5F/zjYDTnmcX3/hGApziF9x8kBaICGXeS69Z7UF3fZBkcvkrfRvqfiTHTJzwQ5vstYdC+VkAR0BW3XWneQTKwMKaQUXhBnVbBPTiJ/MB0HNsNTiIKxSUK/5+Llxzd2ZByZWML+TZNNEeY+lw15EYuzwyXOOgMc8xcSNdpO8aPyP8AhoUiLQM4slIK/flOa4/XEdP2+SfcVrNnRCXadPbA+pDJg5aDXoXAXGiLTIuyTcevpBjm1dER+sk0UYRKBoME83ZvjWTAz/rKPOarYY5kAC1dlnHcg3IlZ+J4ATfCB7gqAvsqtz2ATuQdZWJoHLaEkdBPRaYeB4EeRDjWFBWadExXIF6g/rDQm0bf66P2vXbw+k62wPIkPPltl26tJgdQe8Gdm0eeqiAOCPJg0TrqjONIdA53NF5zJKRsK2UHLTYpon29MmtmKCE2KaydOdO8aV97Ora5pEfQzoVpMjkfMxUTqL5CsQnigR5tIFjA0gUlhOGK0y9SdQ2zVOdS7uS5m9uVL32sJAWpmx/5As3R9TdsmVDHmPH7aFQVx1irFxdX2JtBIGiYWq2CK2QmYBAqIDhylK3yoZ0ePy4tHSZvObYWmdyLntIxVJFvbvdbZ8m1sMyQqnBUJ7tLcvJXbam0+TwQ3tQREcdopQZdJ7r7sMg8DKF9mXVduPtp1f5buwEisoyvoZZPr5obFwB+U5L460sPHA/B9IrmkUmrTZbgJpoT1FRBeMvtC/NHSkowy068s6z6FyeDxeYxNzwtqnDtgk3pT0oJvCKSNQWimLhtm07W0yAXeyxEqjpanJDt1O1+aEaQ559qEB6pkH2z/Ps2t02z67W0+3K1E/pwUREZtiCAYLxR9J0Z35R6oxu0d4LR95p1ZgxRNAkYwIkyvWnNszz4xyNyXo/ZIt5NKb72dgIFHc3dDXdVe7FAEik6C6C0+oWTXSQesf3EakzVPePrRXVVUw2lNfyXCet7kMeFOn38PEtOCbOkyJ6KHd2+AZlGmYOAeYGR7QvR1RE2TB6s/7EztP+zSZffEzIJ9E6Ajm6vNjaJ8PliHz7RccfOZ+dtQNLF48sW3XfDVEVIGtgrRXdTZwu2gIcjntYq/ztQeljMAzsASwnZFp+kEdcG5HKump5KyOul3rJK1WapbAdqx9bZBBydMfUGVSMTqtzxeba8t7OPcuHjbv3wImLa8vH+scrqLhey7vBVCCiDUu1CgXLaaltoEKwlXJTZ215sXPvgRXkYXPt1iN8fALHcCava8t8v6GDjJs7mXLDhEXlkkE0aE7wDpc4CGv04xtaZ215l9G7X0YX7n3XqU3kC+fIJ+cX+e41cMS0cpWWJTDicjydJ99b2nMdbdFNKLctv9FHaA9seeLmOzpg/Op6uD1cvGd5FemiLcDhmOvRSoeJvEB74DFRlUe3uLbZPpn5QR5NvWIOQN779WddET1EfPNgbliqy/pEdsZCoP1Fty7WxAbAQkVAxaAjBzNnNQGiqUCtziKARWarciAblu1mqWl1Hxf2IiqErZWCvKPywJrj9JwsOF95x4itK46XvSEcWx7ZAcMh1BnoBf240Z4IX0k7Rr457Aoat2kAaQEDf62s5AbBrfecXyw3Y4we5DgL7PJsbHHr95g6aml1BonkaA89ouGbEOpE9e2BJ/F4LDjQt4J9v30vL9rmB3lGWNSfDuNg6h3fnOFfgX6pIr3UKxVdQNedydBlQuKkIRq2MHOpxGQLIjXWThXWKDc+th5crOkNEA0KPm9hw5pjTJb6d98RsEQuLbT99mrEJ+Vku9/GpIf1DU5z17HDVg70ShE50hs3OzQA08VPD+k0GZMuJnoFNz+2OjFGuS96xf5MsfXDN4GlTbaw7WP1QiL9HO1hCeTRk+D4H2kPDl179GK45+iYWmZwYMd1uUecmaGbF6B2AmXA0DjtkICVtra8Py/RhBMx1g6s0ZLHR/ukZGu1bDCR781LNOH8ABOQcAbpRKKQplUC4VP6bwc3EpcuLDf+g7Ci0yXaXwEBMT43cR15KBwL5yAoEG3Yv9Ax4wCrk29+eMjB+mYxlKaxOkH+uXVT2v7mW3p72NxLDu3Bv6Tt2y5Z/Dg/wA512SJ0I4PUSqCwPhkFO7JhcEEQHL68DXffFioNOXV/RyoAUhoZYHDRkCeIfOBTwoEhHbYALUXN9wk/NbhLI9FEB3NbQikaAB80qg7GfDGWyHuc5yaohHRQD4tanSzW9Iw2c1idHNds0IMPGtAeLC1RnpDEDZZ1Lr5V0b6La+UsoVYCVaSsupDEd8XSyZP6PyZRtnJKWZrRbwBW1gt32/eDHPpalLqDBai4G2klVNMKpf3YKmOLLMAmLZTxR7e9bPI0gkN/ZeOFxo+1sYwVFqlblVtIneBwg3qTZIV7Rtz40ssiSI33rO9DVbYHr6VQ5lYTdF3ft2zDrHjqps50tm2WICc1gdoucBnWkxYqL1m+UUm3tFXFyqu5aZg8Y5c3fhBPEaHiUeaP77aldNtHJLTZ6kAXm0awgHG3JFHbu23IsCGW9Ytep9zuXJJCJfrN4VHhrn9aE7mMvw9rYKxOJrPCk1loD5a6bFS9LMdY91pZtTke3kEdGcbF6dzT3VViQ8YpUkMD10agutu1A57JxhBcxYBhYomTKNqV38cysraNWu62qJCKrMbTtKd57ItiP6VVov9wQE10eJIagK+8Y7r3qLDNzYESfuvcg7i5U9J4PORbtwcuU0NwiFShw01BEUXGnlOSWyi0LpTbd9XGRIrelXjXR6Ck9trkwOWxNxt5o8LwBIwV4STJwJrBJP9hP63oWF1k0/E6yE+mFZpKlErblNG6TdedmvVbyKsOl9/dPEu8VHaj15btoV+medV3iqe1Qv3JjON1tU09SZRTZ/tOVKBkz9oIlPW2Af1kHXdb1sVsm62LuRcI+55nkx9qeZ5VpTQKFf2DFWq1VlLHXk6NLiUnn0k0RW46LH+SNmN1Yny5ohvgUjYY6gzeKoSbdR3Ooy7WV2fegLUl+cfzp87U2b7j6Zfv45UvMkEiJieIMrtPmqjw2BK5/EA4RCddogzC+mpxcJx+sD6GCmOFIRpkRG2rdzoS+S11KhJvSk8U0dmyrc4hqDJvVsRzBr7yHqzTsY6Z7ZSxyfcOXaWt6ibrMDFbLQSKu6gVIi2yem6YyvwpypWmUjqbQLWqnWwwlkU5flopC4uINuoYn6Yc+pcdRRPt4cm23D2UUfoUGkMcJbima8AmT1Ke79feHvLo6RKnFgK1VWgcjbPSQvU0nnCxzX6Z4TInx4aHIJhAM60KRZTrZkOT+lP6NrxYpGz1W5f8TKzLTrMJ8i5suzR19adRBNqEQrbVQRNlW2y+GkuFUdz9JPmVgoDSdEd/vW8p8mZaSG/IbKogEALNX5yZY0Veb1A+fwoSMwcC5UfhG1KtHyorPwcisSoEhEDzI5vZTeZucbaVmj99iZkTASbEhxTeueoQn+McmfSxS4fsZgXNnKnPEjAt12eeQLvKy54MSihtblCZ45tMoGMZ67IaXkjIU5aXJjWW/GTp5XDdPIaJZ+s31249ookOOsSdV106JSTKiFktleNwM7B5deSxu83D+rLMpGJLazJjlBBA0RJl/zKtzUQRmmxkU5m//nrO7OGF4RlRq/Ha+PrRMnWvWFbsMUzzQIBW94XSzTpkElX271VNk1bHsisJAAALl0lEQVTT93rSki/mPz3PsRfDoRfb6+2q/bedXe96nt3jniWqqyweX1QJkzK+3fInq8X2JWaHul3fKs3hm5rteG379vtrL6Oi+KC73kl5DLNz74EVciJRvbvdnTtFvbXNuVQbw9rgXHpGI6kzpOiuDt5mNoWTQdG82p959kGLhuQCyBChNNXaOHvWWrZVpRXF1q95Wmd24Ylovm7CYbK3wnD4puawaNxKPue9MZvSeuRqCEOilF0/tzIEEm0XXCNqkx5be2vLism/Ae7Aknl/hJDnVjXgo/oI1O7b2At1duOt332Z0L21fSJHKb3KONey9W4ItC8rMSbZlJdGWDRqfBmzgPWVpdu4rhvLyolEaR/fHCMk6qK7Vjp2U47H17vrbA/x9MUnC4HaCNSuwhBp5dXymjRDNkrflgUQrne2bcYqe9+Cyxwb1UR76moEfte3eu4+yaJGPi3LKPOlzJA1cY4tqx6Jkv0MM9efvF88Vb6K1akkzOpqD0lpi182Al52kHJCXGx1rJ6DBeHg3Y3lpJoupf8hr/QAW1dOEjeurdOtIyYiqzz5qmVFbFuS3Y/6JJ1pfUKy9ihZb4/sLCpNd07lbDSXs24RxpDtSRRYHDq+Qo4/HjZAGWSmg/bAlu7EDZs4wjGxwWsjUENCloP1mtThKhsoCFqzZWhTahwOFT05qC3hkN5dxSOBA6W4S+0rL13PQUAcqDN96xknEdf3z7SqEUl1VfHZaAhqmAMGriSqiI7mIrnwcqBROCh9rMr2MCppuTYaAW/05XKv8kyvnYXDky9VNVA8lqd7L9e1ydyGWeqSEhKNjRtPynhiNBJPkFXzSCCTp5kVZsyiKSafadIjrWFNdJisfmVMpKQkxHmCRR24lFCVeaNcGQe3sescJOfwbsxylk+lIAZyBtbYpwQR7xQEaiVQzPTaEg6PhprlImasMkV5V2+QJ6eP7+HYRVU0kmyIf0r7loRDhLShA5X1Y6LpkaeOvd8zJYnMlyH3bxhWViinsc982ZL14ONSNowptrvtZ9iifjBwnMbZuhs3cGASPeiQKSY5clpo31/OZPk6Rdyw5k6V2R5gNQNb1aWHgTX2OAeZOuR7poN6defeb5HDnV3v5omR0yhoKvLjBo4uNAjMQcy6WbaREcHtpkCGRDk/hbu/qORMNGdxoyHbn1ZW2DNxWN8UOOl97e6cE3FwnNgGYpg7dPwU8Zhi7CLRAjfuUskjIY2YlyFRRXfHLqR7MIkqp7L1Wp5VmfSSTGsPvasu/7hRkdIPcJwFduFtAWRa9w0rrMAkHXt1K2u6R46VEgWNxoVG5qovLL52t30aXWiXuJ72rScG+h/9ypwQGKSP2dtu+yx0G/hZHgADEDAqOUeZZ2e1KSJ82dFqnBTEgfBWgk0gvZsJ7mHoBf2Ml+0f39zQmHGjZOIe9cG3eetlZ7ZpW4Qzb6TXyuFppZ6lSJwvC/FkrFBFd9mE7YeZD9pDHpIzN95D95+m5BtVPwkiLk+XmyjN6q92AgXQplK6rbnj8qY93Mi+AyIF8YxqqKhYsDjRHWEiQJd9+C4LNVKdZoKHZZkaYOgCGgE3fgdLwgiYh27QEbqiYhvfpD9ujMgzhz0BDLgBWS2/Cona2Ox9tTPkNfrQ+aYAcXxjgH4gUnb7R5EI8ot8883tLBfunRx9nt3oze6x29EyclzlGfMVLiurse6eeJBo23a8n3o9HXWmF9fun+vbHia5h23aA9rK3KGPrraZOH3lPUg8qWmRyj6LMDMfZCwECtRdvkWN8IEzFYfoqGmoh46fm+NuX9gxyWhUrL7F6UScvTR4lvqeZVcyJFht5GSp9FLj/wXoiooN3dtcyedCeWK/c0wyz3ADPsph97Fz3sys8pGDVu8jCITjpsBWeL7lM0ykTPIPQG/W/2w0P/efZj+N/CLfnF42cXKg3qZzvfilF7fYf+8G5ERy+/gmYk2iVbYHtBVtJk510lh5MWBmPPbYCBQN1DRsIvuub7yw5jXRnrCLB3HxUWc6eNbXJUoorLulEoo8ONS7h/LjQDADIYMDlnUQwyYDD4cDWOGI7xAlKegCyxiUkaX1kySH+CYy8pHMxEhlefINqF83bCfYiG8it2F4gix+DWwPRdqlRY6nI8jYCBTwmYat1QofN6Cw+uTJDYX1yb3lsFRyp5UVkYnroLGMswKOuI74kDMiSG2XtOVndytTiOsG3/RhldvXVx5rxHCFjU5oDyx/L4e1l8+Bq9i0ImvrmWb4N1YCBe5stZ0Yf6UphzyRHzww0LdULJenmFil/4H0QH5lCIYcyCtDVm4ZPDyCupI7fkkR85CcrzzrIaE88kvKWkiMOnPR61hNIoUizeSh14Rcb1UapzGmclRHw0S3na2LcgSyFJbVWVver3kyis/q3jb4hnQTSK/MhCGPx0RvZpm1W0fmdXR47Rwn3oTN1Fcia1Ikm+9ncaBgg3yv5S2R40QrlfM7aQwArsPliJtuKV5TsodKg4KrkXQ2YFWxVbNCFVUWs9pAq1sY47pIhyt/ZxFYcpqlbxgT7bQ6i4rIYUa6kBrrIO3NtVszH2golEqOyLihoP7YRGW8ztqEC4fBmGjd7cHcqPjGX1V7COdvWo4bQ6AGUCYykA4aDVe66hqpsTqZaNaWKx/nYYI+AdKp+MZgiKZTR+XnMsInMfrkYT+hYgrY+m+DFN3FuC2BtDNiZQ2VbFyo6HO6hkQtehm+3cu349lkrOtqD7B4N3PeqCzxjZdTPMcT59MsAu3Dh0aDRkpsvZVIpPgezn1cUW5gUqvM6uxnIboLGkLLu6FPpBvRAHnP1BkQWWdteRGY5ZWSJx7IA+kifY5fFpFu9Ilz0ayNZNxY9siNhytGj9UpOlKlRQWC43o6aqH9RtHxRJQt2kPphgUbEkF7gMVLeX8oJ77hjYrOujeuFzFKX9trjSTQQHkmuhOm4jDxoHuRg0wNaaKRszWzyPJWClWUQLGce6SNBsfEs4sb3S3s0PCcyMdgwJWVieOmztqBJRBZTnVKiYb0O0zg0Kd3c1BOC8JZiXWDA98sWc4uW+LkeGbDcAXKl0822EU26GPkRXzLP0G9MnmIi15nXPaWReADIi3SHohOAi9uD1dAb9TJuNruPsAZeCfENENl0D3h2sR7NZpAA3RRyJvcvQCZdtaWFVfKm/iOdjOslWGHyoFr5s66trwLlQSNvKxKHOhUdM96nWC3wvlZRGWGztB9OD84N9daxIS5rAwG9ywfBnEU1aHM+NCnd3M4sMR5UtCZmBSh/7BDPnEd+eaw5sbGWFg9ZpqkM8qXZS1CbpAWyh/6JIWvwo/1X0G9HKSv/ZtZpyXgUnZ6Lu0BhgewBh6M9S52+4FXFe0BeCOdAAOUB2OwaNIrGwRqhsCJINBhqFApcUfDXW/YobBwDZVsOF5jz7kLBJ2h+3B+cG6uHVke3yLyHMBBZyaVE9B/2CGfuF5qI2YMITdIaxzlj3o5SP/ed50qNX8jygDpAs8g7fB+kw0PXKsLD6QTpI/yqAuDEfBUemkiCbRSRES4ICAICAKWCAiBWgIlwQQBQWBqECgtI0KgpUEpggQBQWDWEBACnbUSl/wKAoJAaQgIgZYGpQgSBASBWUAgnEch0DAaciwICAKCgAMCQqAOYElQQUAQEATCCAiBhtGQY0FAEBAEHBBwJlAH2RJUEBAEBIGpRkAIdKqLVzInCAgCVSIgBFoluiJbEBAEphqBegl0qqGUzAkCgsCsISAEOmslLvkVBASB0hAQAi0NShEkCAgCs4bABBHorBWN5FcQEASajoAQaNNLSPQTBASBxiIgBNrYohHFBAFBoOkIzAqBNr0cRD9BQBCYQASEQCew0ERlQUAQaAYCQqDNKAfRQhAQBCYQASFQi0KTIIKAICAIJCEgBJqEivgJAoKAIGCBgBCoBUgSRBAQBASBJASEQJNQKdNPZAkCgsDUIvD/AQAA//9vzHZZAAAABklEQVQDAFNb2j0sjGv3AAAAAElFTkSuQmCC;" vertex="1" parent="1">
          <mxGeometry x="320" y="223" width="66.73" height="57" as="geometry" />
        </mxCell>
        <mxCell id="hI0YtmNNRfd8naDbK4rW-8" value="" style="endArrow=classic;html=1;rounded=0;entryX=0;entryY=0.5;entryDx=0;entryDy=0;exitX=1;exitY=0.5;exitDx=0;exitDy=0;" edge="1" parent="1" source="hI0YtmNNRfd8naDbK4rW-6" target="hI0YtmNNRfd8naDbK4rW-7">
          <mxGeometry width="50" height="50" relative="1" as="geometry">
            <mxPoint x="340" y="220" as="sourcePoint" />
            <mxPoint x="390" y="170" as="targetPoint" />
          </mxGeometry>
        </mxCell>
        <mxCell id="hI0YtmNNRfd8naDbK4rW-9" value="" style="endArrow=classic;html=1;rounded=0;entryX=0;entryY=0.5;entryDx=0;entryDy=0;exitX=1;exitY=0.5;exitDx=0;exitDy=0;" edge="1" parent="1" source="hI0YtmNNRfd8naDbK4rW-4" target="hI0YtmNNRfd8naDbK4rW-7">
          <mxGeometry width="50" height="50" relative="1" as="geometry">
            <mxPoint x="300" y="270" as="sourcePoint" />
            <mxPoint x="413" y="230" as="targetPoint" />
          </mxGeometry>
        </mxCell>
      </root>
    </mxGraphModel>
  </diagram>
</mxfile>
